<svg xmlns="http://www.w3.org/2000/svg" width="72" height="72"><path fill="#ff3e6d" d="M15.45 12.236a.685.685 0 00-.687.682c0 .376.308.682.687.682a.685.685 0 00.687-.682.685.685 0 00-.687-.682zm0-2a2.687 2.687 0 012.687 2.682 2.687 2.687 0 01-5.374 0 2.687 2.687 0 012.687-2.682zm-.005-7.605l-9.126 7.797v14.273h8.126v-6.4h2v6.4h8.125V10.428zm0-2.631L30.89 13.198l-1.299 1.52-3.02-2.581v14.564H4.319V12.137l-3.02 2.581L0 13.198zM51.13 31.545a.685.685 0 00-.687.682c0 .376.308.682.687.682a.685.685 0 00.687-.682.685.685 0 00-.687-.682zm0-2a2.687 2.687 0 012.687 2.682 2.687 2.687 0 01-5.374 0 2.687 2.687 0 012.687-2.682zm-.004-7.605L42 29.738V44.01h8.126v-6.4h2v6.4h8.125V29.738zm0-2.631L66.57 32.507l-1.298 1.52-3.021-2.581V46.01H40V31.446l-3.02 2.581-1.3-1.52zM26.209 30.114a5.868 5.868 0 015.861 5.862 5.869 5.869 0 01-5.861 5.863H14.677a3.865 3.865 0 00-3.861 3.862 3.865 3.865 0 003.86 3.862h36.286v2H14.677a5.868 5.868 0 01-5.861-5.862 5.868 5.868 0 015.86-5.862H26.21a3.867 3.867 0 003.862-3.863 3.866 3.866 0 00-3.862-3.862H15.753v-2z"/></svg>