<svg xmlns="http://www.w3.org/2000/svg" width="61" height="62"><path fill="#176cf1" d="M47.635 4.396v7.146l-.006.096a.71.71 0 01-.705.612h-1.151l-.096-.006a.71.71 0 01-.615-.702V4.396l.007-.096a.71.71 0 01.704-.612h1.151a.71.71 0 01.711.708zm-4.573 7.142l.005.165a2.71 2.71 0 002.703 2.54h1.147l.165-.004a2.71 2.71 0 002.543-2.7V8.124h5.448l.18.005a3.18 3.18 0 012.997 3.169v6.191H31.396l.044-.432c.038-.434.06-.872.06-1.316a15.62 15.62 0 00-1.979-7.617h13.541zm-27.278 2.466l-.017-.002L15.75 14a1.75 1.75 0 100 3.5c.068 0 .132-.012.198-.02l4.031 4.24 1.45-1.378-3.98-4.187.026-.131c.016-.09.025-.18.025-.274 0-.199-.04-.386-.102-.564l4.304-6.35-1.655-1.123zM35.29 26.72v1.719h1.719V26.72zm-3.664 0v1.719h1.719V26.72zm14.656 0v1.719H48V26.72zm-3.664 0v1.719h1.719V26.72zm-3.664 0v1.719h1.719V26.72zm0 3.677v1.709h1.719v-1.709zm-7.328 0v1.709h1.719v-1.709zm14.656 0v1.709H48v-1.709zm-7.328 3.677v1.719h1.719v-1.719zm3.664 0v1.719h1.719v-1.719zm-7.328 0v1.719h1.719v-1.719zm-3.664 0v1.719h1.719v-1.719zm-10.992 0v1.719h1.719v-1.719zm25.648 0v1.719H48v-1.719zm-29.312 0v1.719h1.719v-1.719zm7.328 0v1.719h1.719v-1.719zm3.664 0v1.719h1.719v-1.719zm10.992 3.677v1.719h1.719v-1.72zm-21.984 0v1.719h1.719v-1.72zm14.656 0v1.719h1.719v-1.72zm-7.328 0v1.719h1.719v-1.72zm21.984 0v1.719H48v-1.72zm-25.648 3.677v1.719h1.719v-1.719zm-3.664 0v1.719h1.719v-1.719zm14.656 0v1.719h1.719v-1.719zm-7.328 0v1.719h1.719v-1.719zm14.656 0v1.719h1.719v-1.719zm-10.992 0v1.719h1.719v-1.719zm18.32 0v1.719H48v-1.719zm-3.664 0v1.719h1.719v-1.719zm-7.328 0v1.719h1.719v-1.719zm-10.992 3.678v1.709h1.719v-1.709zm14.656 0v1.709h1.719v-1.709zm7.328 0v1.709H48v-1.709zm-14.656 0v1.709h1.719v-1.709zm-14.656 0v1.709h1.719v-1.709zm14.656 3.676V50.5h1.719v-1.719zm14.656 0V50.5H48v-1.719zm-3.664 0V50.5h1.719v-1.719zm-3.664 0V50.5h1.719v-1.719zm-21.984 0V50.5h1.719v-1.719zm18.32 0V50.5h1.719v-1.719zm-10.992 0V50.5h1.719v-1.719zm-3.664 0V50.5h1.719v-1.719zm7.328 0V50.5h1.719v-1.719zm30.289 7.855l-.005.18a3.181 3.181 0 01-3.172 2.997H9.739l-.18-.005a3.181 3.181 0 01-2.997-3.172v-28.12l.327.23A15.634 15.634 0 0015.75 31.5c7.39 0 13.591-5.124 15.28-12.001h27.22zM8.922 1.554l.868 1.801.402-.186A13.637 13.637 0 0115.75 2C23.331 2 29.5 8.169 29.5 15.75c0 7.582-6.169 13.751-13.75 13.751C8.168 29.501 2 23.332 2 15.75c0-2.613.729-5.119 2.107-7.306l1.628 1.11-.173-4.897L.814 6.199l1.641 1.119-.235.38A15.618 15.618 0 000 15.75c0 4.313 1.745 8.224 4.562 11.071v29.815l.005.219a5.184 5.184 0 005.172 4.958h45.334l.218-.005a5.184 5.184 0 004.959-5.172V11.302l-.005-.218a5.184 5.184 0 00-5.172-4.959h-5.448V4.396l-.005-.165a2.712 2.712 0 00-2.703-2.543H45.77l-.165.005a2.712 2.712 0 00-2.543 2.703v1.729H28.189l-.225-.283C25.074 2.286 20.678 0 15.75 0c-2.391 0-4.688.523-6.828 1.554z"/></svg>