<svg xmlns="http://www.w3.org/2000/svg" width="71" height="65"><path fill="#176cf1" d="M17.684 2c-3.795 0-6.883 3.087-6.883 6.882a6.891 6.891 0 006.883 6.883c3.795 0 6.882-3.088 6.882-6.883A6.89 6.89 0 0017.684 2zm0-2c4.897 0 8.882 3.984 8.882 8.882s-3.985 8.883-8.882 8.883c-4.898 0-8.883-3.985-8.883-8.883S12.786 0 17.684 0zM7.896 29.811a1.059 1.059 0 11.002 2.119 1.059 1.059 0 01-.002-2.119zm0 4.45a1.059 1.059 0 11.002 2.119 1.059 1.059 0 01-.002-2.118zm0 4.45a1.059 1.059 0 11.002 2.119 1.059 1.059 0 01-.002-2.118zm0 4.37a1.059 1.059 0 11.002 2.117 1.059 1.059 0 01-.002-2.118zM65.977 3.546v45.126h.916a3.861 3.861 0 013.857 3.857 3.861 3.861 0 01-3.857 3.857h-35.71v-2h35.71a1.859 1.859 0 001.857-1.857 1.859 1.859 0 00-1.857-1.857H31.234v-2h32.743V5.547H28.26v-2zM29.231 22.318l.206.175 7.127 7.149 6.746-6.749a4.29 4.29 0 016.06 0 4.292 4.292 0 01.156 5.896l-.156.165-9.735 9.736a4.285 4.285 0 01-2.86 1.243l-.231.004h-.062a4.22 4.22 0 01-2.822-1.08l-.177-.167-4.946-4.947v30.72h-2v-35.55l8.36 8.362c.392.392.935.646 1.47.664l.177-.003h.037a2.29 2.29 0 001.508-.538l.132-.123 9.735-9.736c.89-.89.89-2.34 0-3.23-.818-.819-2.232-.856-3.105-.117l-.127.116-8.162 8.165-8.502-8.532c-1.197-1.077-3.648-.962-4.766-.898-1.215 1.859-3.4 3.073-5.61 3.073a6.919 6.919 0 01-5.503-2.747l-.158-.218H8.356a6.365 6.365 0 00-6.352 6.13L2 29.51v22.437a2.45 2.45 0 002.448 2.448 2.452 2.452 0 002.444-2.288l.005-.16v-3.384h2v16.163h-2v-9.071a4.41 4.41 0 01-2.449.74 4.454 4.454 0 01-4.443-4.24L0 51.948V29.51c0-4.524 3.611-8.22 8.101-8.356l.255-.003h4.794l.288.5a4.917 4.917 0 004.246 2.464c1.586 0 3.212-.945 4.033-2.322l.107-.19.281-.534h.604c.089 0 .223-.01.391-.018 1.286-.077 4.233-.245 6.13 1.267zM18.822 57.294c1.206 0 2.196.941 2.276 2.129l.006.156v5.296h-1.997v-5.296a.286.286 0 00-.22-.278l-.065-.007H16.6a.285.285 0 00-.277.22l-.007.065v5.296h-1.997v-5.296c0-1.208.94-2.2 2.125-2.28l.156-.005z"/></svg>