<svg xmlns="http://www.w3.org/2000/svg" width="1205" height="919"><path fill="#fff8e1" d="M487.889 541.883c-59.436-3.194-118.774.515-178.252-.9-34.89-.823-69.45-5.577-102.916-15.627a393.025 393.025 0 01-22.973-7.683C78.264 478.785-12.572 375.683 1.431 264.23 15.446 152.61 124.117 77.404 230.64 40.988c158.512-54.192 334.895-54.663 493.717-1.317 155.98 52.397 298.977 159.994 392.7 299.067 48.864 72.506 84.703 161.476 87.745 249.432 2.498 72.014-18.764 146.285-66.53 200.258-17.153 19.394-36.015 37.564-57.379 52.287-16.616 11.451-34.874 20.767-54.461 25.894-16.885 4.417-34.493 5.53-51.791 3.21-17.284-2.31-33.98-7.905-49.659-15.42-17.068-8.192-32.999-18.606-48.067-30.02-16.51-12.514-32.034-26.286-47.02-40.565-15.973-15.223-31.337-31.059-46.517-47.074-15.59-16.434-30.977-33.054-46.552-49.52-15.405-16.275-30.983-32.394-47.136-47.937-15.405-14.835-31.359-29.157-48.248-42.306-15.695-12.227-32.236-23.46-49.91-32.64-29.674-15.402-59.637-19.498-92.542-21.767-3.7-.263-7.4-.483-11.102-.687z"/><path fill="#ffe6dc" d="M645.143 476.415c35.726-26.855 68.065-57.636 102.957-85.537 20.465-16.37 42.637-30.318 66.736-40.691 5.57-2.4 11.216-4.619 16.922-6.67 79.442-28.547 181.455-13.069 227.2 57.827 45.818 70.997 19.618 166.738-24.072 239.12-65.01 107.71-166.231 193.134-283.33 239.11-115.005 45.15-249.189 52.268-370.225 17.485-63.104-18.133-126.663-52.03-170.87-101.175-36.199-40.235-59.82-93.239-58.4-147.358.504-19.441 2.58-39.003 7.762-57.789 4.03-14.612 10.034-28.787 18.825-41.193 7.58-10.693 17.169-19.834 28.239-26.85 11.055-7.015 23.359-11.856 36.004-15.1 13.771-3.527 27.96-5.225 42.137-5.931 15.536-.769 31.113-.339 46.625.643 16.535 1.05 33.016 2.745 49.478 4.632 16.899 1.931 33.771 4.066 50.678 6.022 16.716 1.929 33.456 3.684 50.25 4.83 16.021 1.1 32.11 1.64 48.172 1.053 14.93-.542 29.865-2.063 44.461-5.313 24.502-5.462 43.713-17.57 63.734-32.15a525.164 525.164 0 006.717-4.965z" opacity=".6"/></svg>