<svg xmlns="http://www.w3.org/2000/svg" width="72" height="72" viewBox="0 0 72 25"><path fill="#3452ff" d="M24 6.583a.707.707 0 101.418 0 .708.708 0 00-1.417 0zm31.54 0a.708.708 0 101.417 0 .708.708 0 00-1.416 0zm-3.501 0c0 .391.314.708.703.708.39 0 .703-.317.703-.708a.705.705 0 00-.703-.709.705.705 0 00-.703.71zm-3.503 0c0 .391.315.708.703.708.39 0 .704-.317.704-.708a.706.706 0 00-.704-.709.706.706 0 00-.703.71zm-3.503 0a.708.708 0 101.416 0 .708.708 0 00-1.416 0zm-3.502 0a.707.707 0 101.416 0 .708.708 0 10-1.416 0zm-21.033 0c0 .392.314.709.704.709a.706.706 0 00.703-.71.706.706 0 00-.703-.707.706.706 0 00-.704.708zm-3.502 0c0 .392.314.709.703.709.39 0 .703-.317.703-.71a.705.705 0 00-.703-.707.705.705 0 00-.703.708zm-3.503 0a.708.708 0 101.416.001.708.708 0 00-1.416-.001zm24.535 0a.708.708 0 101.416 0 .708.708 0 00-1.416 0zm-3.503 0c0 .391.315.708.704.708a.706.706 0 00.703-.708.706.706 0 00-.703-.709.706.706 0 00-.704.71zm-3.502 0a.707.707 0 101.416 0 .708.708 0 10-1.416 0zm-3.503 0a.708.708 0 101.416 0 .708.708 0 00-1.416 0zm31.64 0a.708.708 0 101.417 0 .708.708 0 00-1.416 0zm-49.187 0a.708.708 0 101.417.001.708.708 0 00-1.417-.001zm49.188 3.498c0 .388.317.703.708.703a.706.706 0 00.709-.703.706.706 0 00-.71-.704.706.706 0 00-.707.704zm-49.188 0c0 .388.317.703.708.703a.707.707 0 00.71-.704.706.706 0 00-.71-.703.706.706 0 00-.708.703zm49.188 3.508a.708.708 0 101.416 0 .708.708 0 00-1.416 0zm-49.188-.001a.708.708 0 101.417.001.708.708 0 00-1.417-.001zm49.188 3.503a.708.708 0 101.416 0 .708.708 0 00-1.416 0zm-49.188 0a.708.708 0 101.417.001.708.708 0 00-1.417-.001zm49.188 3.503a.708.708 0 101.416 0 .708.708 0 00-1.416 0zm-49.188-.006c0 .388.317.704.708.704a.707.707 0 00.71-.704.706.706 0 00-.71-.703.706.706 0 00-.708.703zm0 3.503c0 .389.317.704.708.704a.706.706 0 00.71-.704.706.706 0 00-.71-.703.706.706 0 00-.708.703zm49.188 0c0 .389.317.704.708.704a.706.706 0 00.709-.703.706.706 0 00-.71-.704.706.706 0 00-.707.704zm0 3.508a.708.708 0 101.416 0 .708.708 0 00-1.416 0zm-49.188 0a.708.708 0 101.417.001.708.708 0 00-1.417-.001zm22.31-1.524l-6.644-6.647-1.413 1.414 8.016 8.02 15.283-14.416-1.37-1.455zm26.878 5.027a.708.708 0 101.416 0 .708.708 0 00-1.416 0zM9.973 31.1a.709.709 0 101.418 0 .709.709 0 00-1.418 0zm49.188 3.498c0 .389.317.703.708.703a.706.706 0 00.709-.703.706.706 0 00-.71-.704.706.706 0 00-.707.704zm-49.188 0c0 .389.317.703.708.703a.706.706 0 00.71-.704.706.706 0 00-.71-.703.706.706 0 00-.708.703zm53.99-30.707V36.19l-.006.148a1.894 1.894 0 01-1.885 1.744H40.79l-.047.951-.013.162a2.434 2.434 0 01-2.415 2.165h-6.61l-.16-.005a2.439 2.439 0 01-2.268-2.322l-.047-.951H7.949l-.148-.006a1.895 1.895 0 01-1.745-1.886V3.892l.006-.148A1.895 1.895 0 017.949 2h54.123c1.043 0 1.891.849 1.891 1.892zM31.71 43.361h6.611l.217-.005a4.432 4.432 0 004.059-3.273H68.03v2.664l-.006.148a1.895 1.895 0 01-1.886 1.744H3.892l-.148-.006A1.894 1.894 0 012 42.747v-2.664h25.433a4.433 4.433 0 004.277 3.278zM7.949 0l-.2.005a3.897 3.897 0 00-3.693 3.887v32.299l.009.256c.042.593.226 1.143.503 1.636H0v4.664l.005.2a3.897 3.897 0 003.887 3.692h62.246l.2-.005a3.897 3.897 0 003.692-3.887v-4.664h-4.568l.112-.215a3.805 3.805 0 00.399-1.677V3.892l-.005-.2A3.897 3.897 0 0062.082 0z"/></svg>