<svg xmlns="http://www.w3.org/2000/svg" width="72" height="72"><path fill="#3452ff" d="M32.708 6.105a1 1 0 102 .001 1 1 0 00-2 0zm5.384.334a1 1 0 101.96.392 1 1 0 00-1.96-.392zm-10.05-.764zM22.716 7.31a1 1 0 10.772 1.845 1 1 0 00-.772-1.845zm20.717.553a1 1 0 101.843.775 1 1 0 00-1.843-.775zm4.724 2.324a1 1 0 101.663 1.11 1 1 0 00-1.663-1.11zm-30.406-.196a1 1 0 101.12 1.657 1 1 0 00-1.12-1.657zm34.694 3.462a.999.999 0 101.414 1.414.999.999 0 10-1.414-1.414zm-38.891 0a1 1 0 101.416 1.414 1 1 0 00-1.416-1.414zm42.469 4.051c-.46.309-.584.932-.278 1.394a.998.998 0 001.388.278c.459-.309.583-.933.276-1.394a.996.996 0 00-1.386-.278zm-46.069.351a1 1 0 101.669 1.105 1 1 0 00-1.669-1.105zm48.74 4.223a1 1 0 10.773 1.847 1 1 0 00-.772-1.847zm-51.289.556a1 1 0 101.846.774 1.008 1.008 0 00-.538-1.315.997.997 0 00-1.308.54zm-1.65 5.407a1 1 0 101.961.39 1 1 0 00-1.961-.39zm54.76-.649a1 1 0 10.38 1.965 1 1 0 00-.38-1.965zM46.22 20.25l-1.817.837.297.636c.61 1.293 1.308 2.697 1.994 4.043a81.143 81.143 0 00-2.889 1.604l1.013 1.722.01-.006c.122-.07 1.284-.746 2.782-1.541a280.048 280.048 0 002.407 4.53l1.755-.956-.005-.01c-.085-.157-1.124-2.065-2.377-4.478 1.434-.707 2.927-1.37 4.025-1.668l-.525-1.929-.318.093c-1.194.366-2.684 1.032-4.097 1.729a136.963 136.963 0 01-2.255-4.606zm13.987 13.356a1 1 0 102 .001 1 1 0 00-2 0zm-55 0a1 1 0 102 .001 1 1 0 00-2 0zm30.669-.13c-3.32 2.298-8.162 4.233-11.783 5.491-1.217-9.675-1.133-16.877.449-17.65 1.352-.663 5.82 3.923 11.334 12.16zm-29.358 4.38a1 1 0 10.382 1.963 1 1 0 00-.382-1.963zm53.178.925a1 1 0 101.961.389 1 1 0 00-1.961-.39zm-1.533 5.03a1.001 1.001 0 001.846.77 1 1 0 10-1.846-.77zm-50.212-.522a.998.998 0 00-.54 1.308c.215.51.804.75 1.315.537a.999.999 0 00.54-1.308 1.007 1.007 0 00-1.315-.537zm47.84 4.963a1 1 0 101.67 1.104 1 1 0 00-1.67-1.104zm-45.51-.207a1 1 0 101.109 1.663 1 1 0 00-1.109-1.663zM23.666 19.52c-3.205 1.565-2.656 11.502-1.522 20.091-1.765.57-2.94.894-2.98.905l.524 1.93.032-.01a72.089 72.089 0 002.704-.807 192.257 192.257 0 001.555 9.107l1.964-.385-.234-1.213c-.532-2.82-.98-5.559-1.343-8.15 3.737-1.28 8.927-3.326 12.61-5.858a159.253 159.253 0 014.623 7.597l1.737-.992-.135-.235a171.52 171.52 0 00-4.621-7.588 11.994 11.994 0 001.526-1.535l-1.553-1.261-.191.225c-.264.3-.564.594-.89.886-4.647-6.958-10.531-14.302-13.806-12.707zM13.555 52.343a1 1 0 101.416 1.414 1 1 0 00-1.416-1.414zm38.891 0a.999.999 0 101.414 1.414.999.999 0 10-1.414-1.414zm-3.902 3.22a1 1 0 101.118 1.656 1 1 0 00-1.118-1.657zm-30.95.349a.999.999 0 101.664 1.111 1 1 0 10-1.663-1.111zm4.543 2.66a1 1 0 101.846.773 1 1 0 00-1.846-.772zm21.79-.517a1 1 0 10.771 1.845 1 1 0 00-.771-1.845zm-4.95 1.52a1 1 0 10.398 1.96 1 1 0 00-.398-1.96zm-11.615.807a1 1 0 101.961.389 1 1 0 00-1.96-.39zm5.346.722a1 1 0 102 .001 1 1 0 00-2 0zm32.707-27.398c0 17.484-14.224 31.708-31.707 31.708S2 51.191 2 33.707C2 16.224 16.225 2 33.708 2c17.483 0 31.707 14.224 31.707 31.707zM0 33.707c0 18.587 15.121 33.708 33.708 33.708 18.586 0 33.707-15.121 33.707-33.708C67.415 15.121 52.294 0 33.708 0 15.121 0 0 15.121 0 33.707z"/></svg>