<svg xmlns="http://www.w3.org/2000/svg" width="72" height="72"><path fill="#3452ff" d="M58.163 8.785a1 1 0 102 .001 1 1 0 00-2 0zm-3.894 0a1 1 0 102 0 1 1 0 00-2 0zm-3.895 0a1 1 0 102 0 1 1 0 00-2 0zm-3.894 0a1 1 0 102.001 0 1 1 0 00-2 0zm-3.894 0a1 1 0 102 0 1 1 0 00-2 0zm-3.894 0a1 1 0 102 .001 1 1 0 00-2 0zm-3.894 0a1 1 0 102 .001 1 1 0 00-2 0zm-3.895 0a1 1 0 102 .001 1 1 0 00-2 0zm-3.894 0a1 1 0 102 0 1 1 0 00-2 0zm-3.894 0a1 1 0 102 .001 1 1 0 00-2 0zm-3.894 0a1 1 0 102 0 1 1 0 00-2 0zm-3.894 0a1 1 0 102 .001 1 1 0 00-2 0zm-3.894 0a1 1 0 101.999.001 1 1 0 00-2 0zm-3.895 0a1 1 0 102 .001 1 1 0 00-2 0zm42.836 6.084a1 1 0 102 0 1 1 0 00-2 0zm-3.894 0a1 1 0 102.001 0 1 1 0 00-2 0zm-3.894 0a1 1 0 102 0 1 1 0 00-2 0zm-3.894 0a1 1 0 102 0 1 1 0 00-2 0zm-3.894 0a1 1 0 102 0 1 1 0 00-2 0zm-3.895 0a1 1 0 102 0 1 1 0 00-2 0zm-3.894 0a1 1 0 102 0 1 1 0 00-2 0zm-3.894 0a1 1 0 102 0 1 1 0 00-2 0zm-3.894 0a1 1 0 102 0 1 1 0 00-2 0zm-3.894 0a1 1 0 102 0 1 1 0 00-2 0zm.246 29.34a1 1 0 102 0 1 1 0 00-2 0zm38.94 0a1 1 0 102 0 1 1 0 00-2 0zm-3.895 0a1 1 0 102 0 1 1 0 00-2 0zm-38.94 0a1 1 0 102.001-.002 1 1 0 00-2 .001zm-3.893 0a1 1 0 102 0 1 1 0 00-2 0zm50.622 0a1 1 0 102 0 1 1 0 00-2 0zm-19.706-14.3l3.505-.134-.134 3.505 3.104 1.637-1.869 2.968 1.869 2.969-3.104 1.637.135 3.506-3.506-.134-1.636 3.103-2.969-1.87-2.969 1.87-1.637-3.103-3.505.134.134-3.506-3.103-1.636 1.869-2.969-1.868-2.969 3.102-1.636-.134-3.506 3.505.134 1.637-3.103 2.969 1.869 2.968-1.869zM66 5.532v41.935l-.005.194A3.537 3.537 0 0162.468 51H41.5v-3.029l2.789.107-.17-4.405 3.901-2.057-2.35-3.731 2.348-3.73-3.899-2.057.169-4.404-4.405.168-2.057-3.899-3.73 2.349-3.731-2.349-2.056 3.9-4.406-.169.169 4.405-3.899 2.056 2.348 3.731-2.347 3.731 3.898 2.056-.169 4.405 2.597-.099V51H5.533l-.194-.005A3.538 3.538 0 012 47.467V5.532l.005-.193A3.538 3.538 0 015.533 2h56.935A3.537 3.537 0 0166 5.532zM30.365 51.809l3.731-2.349 3.731 2.348 1.673-3.173v12.302L34 58.398l-5.5 2.539V48.272zM5.533 0l-.217.004A5.54 5.54 0 000 5.532v41.935l.004.217A5.54 5.54 0 005.533 53H26.5v11.063l7.5-3.462 7.5 3.462V53h20.968l.217-.004A5.539 5.539 0 0068 47.467V5.532l-.004-.217A5.539 5.539 0 0062.468 0z"/></svg>