<svg xmlns="http://www.w3.org/2000/svg" width="72" height="72"><path fill="#fff" fill-opacity=".01" d="M0 0h72v72H0z"/><path fill="#955ee1" d="M24.224 54.377a2.52 2.52 0 00-2.518-2.517h-2.7v5.035h2.7zm2 0a4.523 4.523 0 01-4.518 4.518h-4.7V42.79h8.027v2h-6.028v5.07h2.701zm38.234-16.713a.441.441 0 00-.436-.436H37.665a.442.442 0 00-.436.436v26.357c0 .236.2.436.436.436h26.357c.237 0 .436-.2.436-.436zM34.793 64.457c.236 0 .436-.2.436-.436V37.664c0-.237-.2-.436-.436-.436H8.436a.441.441 0 00-.436.436v26.357c0 .236.199.436.436.436zM22.614 34.792c0 .237.199.436.436.436h26.358a.441.441 0 00.436-.436V8.435A.44.44 0 0049.408 8H23.05a.44.44 0 00-.436.435zm41.408.436a2.439 2.439 0 012.436 2.436v26.357a2.439 2.439 0 01-2.436 2.436H37.665a2.414 2.414 0 01-1.436-.479 2.414 2.414 0 01-1.436.479H8.436A2.439 2.439 0 016 64.021V37.664a2.439 2.439 0 012.436-2.436h12.222a2.405 2.405 0 01-.044-.436V8.435A2.438 2.438 0 0123.05 6h26.358a2.438 2.438 0 012.436 2.435v26.357c0 .15-.019.294-.044.436zM53.453 47.307a2.52 2.52 0 00-2.518-2.517h-2.7v5.035h2.7zm0 7.07a2.52 2.52 0 00-2.518-2.517h-2.7v5.035h2.7zm.292-3.534a4.511 4.511 0 011.709 3.535 4.523 4.523 0 01-4.519 4.517h-4.7V42.79h4.7a4.523 4.523 0 014.518 4.517zM36.177 15.387l-1.281 6.851h2.653l-1.298-6.85zm-1.655 8.851l-.896 4.785-1.967-.367 2.858-15.269h3.39L40.8 28.653l-1.965.373-.907-4.788z"/></svg>