<svg xmlns="http://www.w3.org/2000/svg" width="72" height="72"><path fill="#fff" fill-opacity=".01" d="M0 0h72v72H0z"/><path fill="#955ee1" d="M47.658 18.579l6.323 11.846.043.099a.629.629 0 01-.057.515c-.056.094-.157.205-.317.205H41.004l-.09-.012a.403.403 0 01-.226-.193.627.627 0 01-.015-.614l6.324-11.846.048-.076a.348.348 0 01.282-.155c.077 0 .224.03.33.23zm-23.343-1.723l1.254 3.976.06.165a2.248 2.248 0 002.086 1.426h4.057l.066.008c.08.02.138.08.17.178.027.082.05.237-.099.348l-3.282 2.457-.14.115a2.314 2.314 0 00-.67 2.43l1.254 3.976.017.077a.283.283 0 01-.123.268c-.137.097-.23.025-.269-.005l-3.28-2.455-.154-.105a2.214 2.214 0 00-2.52.104l-3.282 2.457-.024.018c-.047.031-.13.067-.244-.013a.288.288 0 01-.106-.345l1.254-3.976.048-.177a2.313 2.313 0 00-.858-2.368l-3.283-2.457-.054-.05c-.089-.104-.068-.228-.045-.297.041-.124.121-.187.237-.187h4.056l.173-.007a2.25 2.25 0 001.973-1.584l1.254-3.976.031-.07c.11-.183.371-.16.443.07zm20.922.78l-6.328 11.85-.085.175a2.635 2.635 0 00.15 2.409c.44.735 1.2 1.174 2.03 1.174H53.66l.177-.007a2.372 2.372 0 001.855-1.167 2.633 2.633 0 00.063-2.585l-6.327-11.849-.09-.157c-.446-.711-1.183-1.13-2.006-1.13-.882 0-1.665.48-2.095 1.287zm-23.305-1.38l-1.253 3.976-.028.064a.246.246 0 01-.21.127h-4.056l-.171.007c-.908.067-1.668.66-1.963 1.55a2.276 2.276 0 00.798 2.58l3.281 2.456.053.052a.32.32 0 01.048.29l-1.253 3.975-.047.171a2.298 2.298 0 00.905 2.408c.394.28.841.418 1.288.418a2.22 2.22 0 001.335-.453l3.282-2.456.052-.03a.224.224 0 01.223.03l3.281 2.456.151.104c.766.486 1.72.464 2.474-.069a2.302 2.302 0 00.857-2.579l-1.254-3.976-.014-.077a.303.303 0 01.115-.264l3.281-2.457.138-.11a2.276 2.276 0 00.661-2.47c-.314-.946-1.152-1.556-2.134-1.556h-4.057l-.062-.008a.27.27 0 01-.176-.185l-1.254-3.975-.059-.166a2.215 2.215 0 00-2.086-1.425c-.998 0-1.84.625-2.146 1.591zm32.123 25.366v12.694l-.008.079a.39.39 0 01-.383.312H40.99l-.078-.008a.391.391 0 01-.312-.383V41.622l.008-.078a.391.391 0 01.382-.312h12.674a.39.39 0 01.39.39zm-23.237 6.342a6.778 6.778 0 01-6.77 6.77 6.778 6.778 0 01-6.77-6.77 6.779 6.779 0 016.77-6.77 6.779 6.779 0 016.77 6.77zm10.171-8.732l-.163.006a2.393 2.393 0 00-2.226 2.385v12.692l.005.163a2.394 2.394 0 002.384 2.23h12.676l.164-.006a2.394 2.394 0 002.226-2.387V41.623l-.006-.163a2.393 2.393 0 00-2.384-2.228zm-25.71 8.732c0 4.836 3.933 8.77 8.77 8.77 4.835 0 8.77-3.934 8.77-8.77 0-4.835-3.935-8.77-8.77-8.77-4.837 0-8.77 3.935-8.77 8.77zm47.396-35.895v47.536a3.073 3.073 0 01-3.069 3.069H12.07A3.073 3.073 0 019 59.605V12.069A3.072 3.072 0 0112.07 9h47.536a3.072 3.072 0 013.069 3.069zM12.07 7A5.076 5.076 0 007 12.069v47.536a5.076 5.076 0 005.07 5.069h47.536a5.075 5.075 0 005.069-5.069V12.069A5.075 5.075 0 0059.606 7z"/></svg>