<svg xmlns="http://www.w3.org/2000/svg" width="72" height="72"><path fill="#ff3e6d" d="M24.888 6.286a1.192 1.192 0 00-.885 1.436 1.2 1.2 0 001.444.878 1.188 1.188 0 00.885-1.434 1.2 1.2 0 00-1.444-.88zM30 6.802v.996l5.966.007v4.778l-.008.092a.59.59 0 01-.574.486H14.952l-.093-.008a.589.589 0 01-.49-.57V7.819h2.866l3.101-.023v-.994l.005-.214c.113-2.547 2.234-4.585 4.827-4.585C27.833 2.003 30 4.156 30 6.802zm-23.915 5.11a1.189 1.189 0 00.495 1.609 1.193 1.193 0 001.611-.495c.31-.58.088-1.3-.495-1.607a1.194 1.194 0 00-1.611.493zm0 4.238a1.19 1.19 0 00.495 1.608 1.194 1.194 0 001.611-.494c.31-.58.088-1.3-.495-1.608a1.194 1.194 0 00-1.611.494zm0 4.237a1.189 1.189 0 00.495 1.609 1.193 1.193 0 001.61-.496c.31-.58.088-1.3-.495-1.608a1.194 1.194 0 00-1.611.494zm0 4.238a1.189 1.189 0 00.495 1.608 1.193 1.193 0 001.611-.495c.31-.58.088-1.3-.495-1.607a1.194 1.194 0 00-1.611.494zm0 4.237a1.193 1.193 0 002.107 1.114c.309-.58.087-1.3-.496-1.608a1.194 1.194 0 00-1.611.494zm7.276 1.43v2.013h13.446v-2.013zm-7.276 2.807a1.189 1.189 0 00.495 1.609 1.193 1.193 0 001.611-.495c.31-.58.088-1.3-.495-1.607a1.194 1.194 0 00-1.611.493zm29.977-.892l-2.295-2.475-1.484 1.356 3.756 4.05 6.792-7.098-1.461-1.38zm-29.977 5.13a1.189 1.189 0 00.495 1.608 1.193 1.193 0 001.611-.494c.31-.58.088-1.3-.495-1.608a1.194 1.194 0 00-1.611.494zm0 4.238c-.309.58-.087 1.3.495 1.607a1.193 1.193 0 001.611-.494c.31-.58.088-1.3-.495-1.607a1.193 1.193 0 00-1.611.494zm0 4.237a1.189 1.189 0 00.495 1.608 1.193 1.193 0 001.611-.495c.31-.58.088-1.3-.495-1.607a1.194 1.194 0 00-1.611.494zm7.276 1.732v2.013h13.446v-2.013zm-7.276 2.505a1.192 1.192 0 002.107 1.114c.309-.58.087-1.3-.496-1.607a1.194 1.194 0 00-1.611.493zm29.977-.59l-2.295-2.476-1.484 1.356 3.756 4.052 6.792-7.1-1.461-1.38zM6.085 54.286a1.189 1.189 0 00.495 1.608 1.193 1.193 0 001.61-.494c.31-.58.088-1.3-.495-1.607a1.194 1.194 0 00-1.611.494zm0 4.237a1.189 1.189 0 00.495 1.609 1.193 1.193 0 001.611-.495c.31-.58.088-1.3-.495-1.608a1.194 1.194 0 00-1.611.494zm.495 5.845a1.193 1.193 0 001.611-.494c.31-.58.088-1.3-.495-1.607a1.194 1.194 0 00-1.611.494c-.309.58-.087 1.3.495 1.607zM46.81 7.82l.127.007a1.16 1.16 0 011.036 1.148v57.868l-.007.126a1.162 1.162 0 01-1.155 1.029H3.179l-.126-.007a1.16 1.16 0 01-1.036-1.148V8.974l.007-.126A1.162 1.162 0 013.179 7.82h9.172v4.764l.005.163a2.594 2.594 0 002.594 2.418h20.427l.164-.005a2.592 2.592 0 002.434-2.576V7.807zM18.393 5.807l-15.213.01L3 5.82c-1.67.094-3 1.472-3 3.154v57.868l.005.179A3.174 3.174 0 003.179 70h43.642l.18-.005C48.67 69.902 50 68.524 50 66.842V8.974l-.005-.179a3.174 3.174 0 00-3.174-2.979H34.2l-2.258-.01-.039-.234C31.32 2.406 28.521 0 25.168 0c-3.436 0-6.289 2.527-6.776 5.807z"/></svg>