<svg xmlns="http://www.w3.org/2000/svg" width="72" height="72"><path fill="#ff3e6d" d="M44.15 2.004c-1.887 1.578-3.093 3.945-3.093 6.568v1.644H2.008V8.572l.004-.236C2.137 4.822 5.04 2.002 8.59 2.002l33.455.001 2.105.001zM21.847 22.36c0 .658.534 1.19 1.192 1.19a1.19 1.19 0 100-2.378 1.19 1.19 0 00-1.192 1.188zm4.216 0c0 .658.537 1.19 1.197 1.19.661 0 1.197-.532 1.197-1.19 0-.656-.536-1.188-1.197-1.188-.66 0-1.197.532-1.197 1.188zm4.216 0c0 .658.534 1.19 1.192 1.19a1.19 1.19 0 100-2.378 1.19 1.19 0 00-1.192 1.188zm4.217 0c0 .658.534 1.19 1.191 1.19a1.19 1.19 0 100-2.378 1.19 1.19 0 00-1.191 1.188zm4.216 0c0 .658.536 1.19 1.197 1.19s1.196-.532 1.196-1.19c0-.656-.535-1.188-1.196-1.188-.66 0-1.197.532-1.197 1.188zm4.216 0c0 .658.534 1.19 1.192 1.19a1.19 1.19 0 100-2.378 1.19 1.19 0 00-1.192 1.188zm4.216 0c0 .658.537 1.19 1.197 1.19.661 0 1.197-.532 1.197-1.19 0-.656-.536-1.188-1.197-1.188-.66 0-1.197.532-1.197 1.188zm-29.513 0c0 .658.534 1.19 1.192 1.19a1.19 1.19 0 100-2.378 1.19 1.19 0 00-1.192 1.188zm4.216 5.27c0 .654.534 1.184 1.192 1.184.658 0 1.192-.53 1.192-1.184 0-.653-.534-1.183-1.192-1.183-.658 0-1.192.53-1.192 1.183zm4.216 0c0 .654.537 1.184 1.197 1.184a1.19 1.19 0 001.197-1.184 1.19 1.19 0 00-1.197-1.183c-.66 0-1.197.53-1.197 1.183zm4.216 0c0 .654.534 1.184 1.192 1.184.659 0 1.192-.53 1.192-1.184 0-.653-.533-1.183-1.192-1.183-.658 0-1.192.53-1.192 1.183zm4.217 0c0 .654.534 1.184 1.191 1.184.659 0 1.192-.53 1.192-1.184 0-.653-.533-1.183-1.192-1.183-.657 0-1.191.53-1.191 1.183zm4.216 0a1.19 1.19 0 001.197 1.184 1.19 1.19 0 001.196-1.184 1.19 1.19 0 00-1.196-1.183c-.66 0-1.197.53-1.197 1.183zm4.216 0c0 .654.534 1.184 1.192 1.184.658 0 1.192-.53 1.192-1.184 0-.653-.534-1.183-1.192-1.183-.658 0-1.192.53-1.192 1.183zm4.216 0c0 .654.537 1.184 1.197 1.184a1.19 1.19 0 001.197-1.184 1.19 1.19 0 00-1.197-1.183c-.66 0-1.197.53-1.197 1.183zm-29.513 0c0 .654.534 1.184 1.192 1.184.658 0 1.191-.53 1.191-1.184 0-.653-.533-1.183-1.191-1.183s-1.192.53-1.192 1.183zm8.432 5.28c0 .656.537 1.189 1.197 1.189.661 0 1.197-.533 1.197-1.19 0-.655-.536-1.188-1.197-1.188-.66 0-1.197.533-1.197 1.188zm-4.216 0a1.191 1.191 0 002.384 0 1.19 1.19 0 00-1.192-1.189 1.19 1.19 0 00-1.192 1.188zm8.432 0a1.191 1.191 0 002.384 0 1.19 1.19 0 00-1.192-1.189 1.19 1.19 0 00-1.192 1.188zm4.217 0a1.191 1.191 0 002.383 0 1.19 1.19 0 00-1.192-1.189 1.19 1.19 0 00-1.191 1.188zm4.216 0c0 .656.536 1.189 1.197 1.189s1.196-.533 1.196-1.19c0-.655-.535-1.188-1.196-1.188-.66 0-1.197.533-1.197 1.188zm4.216 0a1.191 1.191 0 002.384 0 1.19 1.19 0 00-1.192-1.189 1.19 1.19 0 00-1.192 1.188zm4.216 0c0 .656.537 1.189 1.197 1.189.661 0 1.197-.533 1.197-1.19 0-.655-.536-1.188-1.197-1.188-.66 0-1.197.533-1.197 1.188zm-29.513 0a1.191 1.191 0 002.383 0 1.19 1.19 0 00-1.191-1.189 1.19 1.19 0 00-1.192 1.188zm0 5.27c0 .654.534 1.184 1.192 1.184.658 0 1.191-.53 1.191-1.184 0-.654-.533-1.184-1.191-1.184s-1.192.53-1.192 1.184zm4.216 0c0 .654.534 1.184 1.192 1.184.658 0 1.192-.53 1.192-1.184 0-.654-.534-1.184-1.192-1.184-.658 0-1.192.53-1.192 1.184zm-4.216 5.28a1.191 1.191 0 002.383 0 1.19 1.19 0 00-1.191-1.19 1.19 1.19 0 00-1.192 1.19zM55.99 8.562v50.692h-4.245l-3.411-3.4 3.594-1.89-2.358-3.735 2.358-3.734-3.914-2.059.17-4.409-4.425.17-2.065-3.903-3.746 2.35-3.745-2.35-2.064 3.902-4.424-.168.17 4.41-3.916 2.057 2.36 3.735-2.358 3.735 3.618 1.901-3.396 3.388h-13.15V12.206h32.02V8.563l.005-.231c.122-3.452 2.976-6.266 6.467-6.324 3.571.068 6.456 2.98 6.456 6.555zm-13.415 33.69l3.52-.134-.135 3.507 3.116 1.638-1.877 2.97 1.877 2.971-3.116 1.638.135 3.508-3.52-.134-1.624 3.07-.029.029-2.97-1.864-2.948 1.849-.094-.094-1.582-2.99-3.52.135.135-3.509-3.117-1.637 1.877-2.97-1.877-2.972 3.116-1.638-.135-3.507 3.52.134 1.643-3.105 2.98 1.87 2.981-1.87zm-14.857 18.19l4.423-.168.959 1.812-5.739 5.72-.608-3.827-3.838-.607 4.877-4.864zm25.309 2.93l-3.839.607-.609 3.827-5.762-5.745.945-1.787 4.423.168-.076-1.973zM8.59 0l-.258.004C3.715.14 0 3.927 0 8.564v3.644h9.036v49.059h13.15l-3.477 3.467 6.288.996.999 6.27 8.084-8.06.125.237 3.745-2.35 3.746 2.35.139-.262L49.944 72l.999-6.27 6.287-.996-3.476-3.467H58V8.564l-.004-.255C57.865 3.833 54.268.212 49.795.014l-.254-.008h-.014l-.059-.003L49.41 0z"/></svg>