<svg xmlns="http://www.w3.org/2000/svg" width="72" height="72"><path fill="#ff3e6d" d="M32.308 5.866a1.195 1.195 0 00-.878 1.44 1.189 1.189 0 102.311-.558 1.189 1.189 0 00-1.433-.882zm-6.359 0a1.194 1.194 0 10.557 2.321 1.194 1.194 0 00-.557-2.321zm12.81 0a1.192 1.192 0 10.555 2.32 1.192 1.192 0 00-.554-2.32zm-3.29 2.972a1.188 1.188 0 10.554 2.31 1.188 1.188 0 00-.554-2.31zm-18.981 0a1.194 1.194 0 10.558 2.322 1.194 1.194 0 00-.558-2.322zm6.489 0a1.187 1.187 0 00-.881 1.433c.152.637.796 1.03 1.438.878a1.19 1.19 0 00.881-1.433 1.194 1.194 0 00-1.438-.878zm6.28 0a1.187 1.187 0 00-.882 1.433c.153.637.797 1.03 1.439.878a1.19 1.19 0 00.88-1.433 1.194 1.194 0 00-1.438-.878zm24.286 1.155c0 .656.535 1.189 1.193 1.189a1.19 1.19 0 001.193-1.189 1.19 1.19 0 00-1.193-1.187 1.19 1.19 0 00-1.193 1.187zm3.182 3.273a1.188 1.188 0 102.376.001 1.188 1.188 0 00-2.376-.001zm-6.321 0a1.19 1.19 0 001.192 1.188 1.19 1.19 0 001.193-1.188 1.19 1.19 0 00-1.193-1.188 1.19 1.19 0 00-1.192 1.188zM19.67 12.11a1.19 1.19 0 00-.882 1.434 1.194 1.194 0 002.32-.555 1.195 1.195 0 00-1.438-.879zm-6.322 0a1.19 1.19 0 00-.882 1.434 1.194 1.194 0 002.321-.555 1.194 1.194 0 00-1.439-.879zm25.412 0a1.187 1.187 0 00-.882 1.434 1.194 1.194 0 002.32-.556 1.195 1.195 0 00-1.438-.877zm-6.452 0a1.189 1.189 0 10.555 2.31 1.189 1.189 0 00-.555-2.31zm-6.359 0a1.19 1.19 0 00-.882 1.434 1.194 1.194 0 002.321-.555 1.195 1.195 0 00-1.439-.879zm-9.461 3.294a1.194 1.194 0 10.558 2.322 1.194 1.194 0 00-.558-2.322zm-6.28 0a1.194 1.194 0 10.559 2.322 1.194 1.194 0 00-.559-2.322zm12.769 0a1.192 1.192 0 10.557 2.32 1.194 1.194 0 00-.557-2.32zm24.343 1.362a1.193 1.193 0 102.386.002 1.193 1.193 0 00-2.386-.002zm12.628.001a1.19 1.19 0 001.188 1.193 1.19 1.19 0 001.188-1.193 1.19 1.19 0 00-1.188-1.193c-.655 0-1.188.534-1.188 1.193zm-6.405 0a1.194 1.194 0 102.388 0 1.194 1.194 0 00-2.388 0zm-9.335 2.867c0 .66.532 1.194 1.187 1.194a1.19 1.19 0 001.188-1.194 1.19 1.19 0 00-1.188-1.193 1.19 1.19 0 00-1.187 1.193zm12.517 0c0 .66.532 1.194 1.188 1.194a1.19 1.19 0 001.188-1.194 1.19 1.19 0 00-1.188-1.193 1.19 1.19 0 00-1.188 1.193zm-6.321 0a1.194 1.194 0 102.387 0 1.194 1.194 0 00-2.387 0zm-24.455-.93a1.194 1.194 0 10.557 2.32 1.194 1.194 0 00-.557-2.32zm-6.28 0a1.194 1.194 0 10.557 2.32 1.194 1.194 0 00-.556-2.32zm-7.203 1.44a1.194 1.194 0 102.321-.56 1.194 1.194 0 00-2.32.56zm41.077 2.73c0 .656.535 1.188 1.193 1.188a1.19 1.19 0 001.193-1.189 1.19 1.19 0 00-1.193-1.187 1.19 1.19 0 00-1.193 1.187zm-44.25 0c0 .656.535 1.188 1.193 1.188a1.19 1.19 0 001.193-1.189 1.19 1.19 0 00-1.193-1.187 1.19 1.19 0 00-1.192 1.187zm6.28 0c0 .656.535 1.188 1.193 1.188a1.19 1.19 0 001.193-1.189 1.19 1.19 0 00-1.193-1.187 1.19 1.19 0 00-1.193 1.187zm31.747 0a1.19 1.19 0 001.193 1.188 1.19 1.19 0 001.192-1.189 1.19 1.19 0 00-1.192-1.187 1.19 1.19 0 00-1.193 1.187zm12.628 0a1.188 1.188 0 102.377-.001 1.188 1.188 0 00-2.377.001zm-37.18-1.156a1.19 1.19 0 00-.883 1.434 1.194 1.194 0 002.321-.556 1.194 1.194 0 00-1.439-.878zM5.735 26.145a1.19 1.19 0 001.188 1.192 1.19 1.19 0 001.187-1.192 1.19 1.19 0 00-1.187-1.194 1.19 1.19 0 00-1.188 1.194zm6.698-.001a1.194 1.194 0 102.387 0 1.194 1.194 0 00-2.387 0zm31.774 0a1.19 1.19 0 001.187 1.193 1.19 1.19 0 001.188-1.193 1.19 1.19 0 00-1.188-1.193 1.19 1.19 0 00-1.187 1.193zm6.196 0a1.194 1.194 0 102.387 0 1.194 1.194 0 00-2.387 0zm6.321 0a1.19 1.19 0 001.188 1.193 1.19 1.19 0 001.188-1.193 1.19 1.19 0 00-1.188-1.193 1.19 1.19 0 00-1.188 1.193zm6.405 0a1.193 1.193 0 102.386 0 1.193 1.193 0 00-2.386 0zm-15.81 3.133a1.193 1.193 0 102.386 0 1.193 1.193 0 00-2.386 0zm6.223 0a1.194 1.194 0 102.388 0 1.194 1.194 0 00-2.388 0zm-12.628 0a1.193 1.193 0 102.386 0 1.193 1.193 0 00-2.386 0zm19.033 0a1.19 1.19 0 001.188 1.193 1.19 1.19 0 001.188-1.192 1.19 1.19 0 00-1.188-1.194c-.655 0-1.188.534-1.188 1.194zm-50.654.169a1.19 1.19 0 001.192 1.188 1.19 1.19 0 001.193-1.188 1.19 1.19 0 00-1.193-1.188 1.19 1.19 0 00-1.192 1.188zm41.11 3.002a1.194 1.194 0 102.387 0 1.194 1.194 0 00-2.387 0zm12.726 0a1.193 1.193 0 102.386 0 1.193 1.193 0 00-2.386 0zm-6.405 0a1.19 1.19 0 001.188 1.193 1.19 1.19 0 001.188-1.193 1.19 1.19 0 00-1.188-1.193 1.19 1.19 0 00-1.188 1.193zm-50.78 0a1.19 1.19 0 001.188 1.193 1.19 1.19 0 001.187-1.193 1.19 1.19 0 00-1.187-1.193 1.19 1.19 0 00-1.188 1.193zm38.263 0a1.19 1.19 0 001.187 1.193 1.19 1.19 0 001.188-1.193 1.19 1.19 0 00-1.188-1.193 1.19 1.19 0 00-1.187 1.193zm22.271 3.048a1.188 1.188 0 102.377-.001 1.188 1.188 0 00-2.377.001zm-6.53 0a1.188 1.188 0 102.376-.001 1.188 1.188 0 00-2.377.001zm-19.034-.001a1.19 1.19 0 001.192 1.189 1.19 1.19 0 001.193-1.189 1.19 1.19 0 00-1.193-1.188 1.19 1.19 0 00-1.192 1.188zm6.405 0a1.19 1.19 0 001.193 1.189 1.19 1.19 0 001.192-1.189 1.19 1.19 0 00-1.192-1.188 1.19 1.19 0 00-1.193 1.188zm6.223 0c0 .656.535 1.189 1.193 1.189a1.19 1.19 0 001.193-1.189 1.19 1.19 0 00-1.193-1.188 1.19 1.19 0 00-1.193 1.188zm-50.486.26a1.19 1.19 0 001.187 1.193 1.19 1.19 0 001.188-1.193 1.19 1.19 0 00-1.188-1.193 1.19 1.19 0 00-1.187 1.193zm2.888 2.997a1.19 1.19 0 001.188 1.193 1.19 1.19 0 001.187-1.193 1.19 1.19 0 00-1.187-1.193 1.19 1.19 0 00-1.188 1.193zm44.459 0a1.194 1.194 0 102.387 0 1.194 1.194 0 00-2.387 0zm-12.981 0a1.193 1.193 0 102.386.001 1.193 1.193 0 00-2.386-.001zm-18.668 0c0 .659.533 1.193 1.188 1.193a1.19 1.19 0 001.187-1.193 1.19 1.19 0 00-1.187-1.193 1.19 1.19 0 00-1.188 1.193zm-6.321 0a1.194 1.194 0 102.387 0 1.194 1.194 0 00-2.387 0zm50.696 0a1.193 1.193 0 102.386 0 1.193 1.193 0 00-2.386 0zm-6.405 0a1.19 1.19 0 001.188 1.193 1.19 1.19 0 001.188-1.193 1.19 1.19 0 00-1.188-1.193 1.19 1.19 0 00-1.188 1.193zm-12.517 0a1.19 1.19 0 001.187 1.193 1.19 1.19 0 001.188-1.193 1.19 1.19 0 00-1.188-1.193 1.19 1.19 0 00-1.187 1.193zM9.294 41.723a1.194 1.194 0 102.387 0 1.194 1.194 0 00-2.387 0zm50.654.002a1.19 1.19 0 001.188 1.192 1.19 1.19 0 001.188-1.192 1.19 1.19 0 00-1.188-1.194c-.655 0-1.188.534-1.188 1.194zm-19.033-.002a1.193 1.193 0 102.386.002 1.193 1.193 0 00-2.386-.002zm-25.342 0a1.194 1.194 0 102.387 0 1.194 1.194 0 00-2.387 0zm6.28 0a1.194 1.194 0 102.387 0 1.194 1.194 0 00-2.387 0zm31.69 0a1.194 1.194 0 102.388 0 1.194 1.194 0 00-2.388 0zm-6.223.222a1.19 1.19 0 001.193 1.189 1.19 1.19 0 001.192-1.189 1.19 1.19 0 00-1.192-1.187 1.19 1.19 0 00-1.193 1.187zm9.405 3.128a1.19 1.19 0 001.188 1.193 1.19 1.19 0 001.188-1.193 1.19 1.19 0 00-1.188-1.193 1.19 1.19 0 00-1.188 1.193zm6.405 0a1.193 1.193 0 102.386 0 1.193 1.193 0 00-2.386 0zm-12.726 0a1.194 1.194 0 102.387 0 1.194 1.194 0 00-2.387 0zm-25.202.084a1.193 1.193 0 102.386.001 1.193 1.193 0 00-2.386-.001zm-6.447 0c0 .659.533 1.193 1.188 1.193a1.19 1.19 0 001.187-1.193 1.19 1.19 0 00-1.187-1.193 1.19 1.19 0 00-1.188 1.193zm-6.321 0a1.194 1.194 0 102.387 0 1.194 1.194 0 00-2.387 0zm15.824 3.097c0 .66.532 1.194 1.187 1.194a1.19 1.19 0 001.188-1.194 1.19 1.19 0 00-1.188-1.192 1.19 1.19 0 00-1.187 1.192zm-6.405 0a1.194 1.194 0 102.387 0 1.194 1.194 0 00-2.387 0zm-12.768 0a1.194 1.194 0 102.387 0 1.194 1.194 0 00-2.387 0zm50.863.001a1.19 1.19 0 001.188 1.193 1.19 1.19 0 001.188-1.193 1.19 1.19 0 00-1.188-1.193c-.655 0-1.188.534-1.188 1.193zm-44.375 0a1.194 1.194 0 102.387 0 1.194 1.194 0 00-2.387 0zm37.97 0a1.194 1.194 0 102.388 0 1.194 1.194 0 00-2.388 0zm-34.788 3.139c0 .659.533 1.193 1.188 1.193a1.19 1.19 0 001.187-1.193 1.19 1.19 0 00-1.187-1.193 1.19 1.19 0 00-1.188 1.193zm31.649 0a1.194 1.194 0 102.387 0 1.194 1.194 0 00-2.387 0zm6.321 0a1.19 1.19 0 001.188 1.193 1.19 1.19 0 001.188-1.193 1.19 1.19 0 00-1.188-1.193 1.19 1.19 0 00-1.188 1.193zm-44.458 0a1.19 1.19 0 001.187 1.193 1.19 1.19 0 001.188-1.193 1.19 1.19 0 00-1.188-1.193 1.19 1.19 0 00-1.187 1.193zm19.34 0a1.19 1.19 0 001.188 1.193 1.19 1.19 0 001.188-1.193 1.19 1.19 0 00-1.188-1.193 1.19 1.19 0 00-1.187 1.193zm-6.404 0a1.193 1.193 0 102.385.001 1.193 1.193 0 00-2.386-.001zm3.055 3.14a1.19 1.19 0 001.187 1.193 1.19 1.19 0 001.188-1.193 1.19 1.19 0 00-1.188-1.193 1.19 1.19 0 00-1.187 1.193zm-12.685 0a1.194 1.194 0 102.387 0 1.194 1.194 0 00-2.387 0zm6.28 0a1.194 1.194 0 102.387 0 1.194 1.194 0 00-2.387 0zm31.69.052a1.194 1.194 0 102.388 0 1.194 1.194 0 00-2.388 0zm6.657 0c0 .66.532 1.194 1.187 1.194a1.19 1.19 0 001.188-1.194 1.19 1.19 0 00-1.188-1.192 1.19 1.19 0 00-1.187 1.192zm-41.654 3.187a1.188 1.188 0 102.376.002 1.188 1.188 0 00-2.376-.002zm6.447 0a1.19 1.19 0 001.192 1.189 1.19 1.19 0 001.193-1.189 1.19 1.19 0 00-1.193-1.187 1.19 1.19 0 00-1.192 1.187zm31.732 0a1.188 1.188 0 102.376.002 1.188 1.188 0 00-2.376-.002zm-6.321 0a1.19 1.19 0 001.192 1.189 1.19 1.19 0 001.193-1.189 1.19 1.19 0 00-1.193-1.187 1.19 1.19 0 00-1.192 1.187zm-3.098 3.25a1.19 1.19 0 001.188 1.193 1.19 1.19 0 001.187-1.194 1.19 1.19 0 00-1.187-1.192 1.19 1.19 0 00-1.188 1.192zm-19.048 0a1.19 1.19 0 001.187 1.193 1.19 1.19 0 001.188-1.194 1.19 1.19 0 00-1.188-1.192 1.19 1.19 0 00-1.187 1.192zm-6.405 0a1.194 1.194 0 102.387 0 1.194 1.194 0 00-2.387 0zm31.69 0a1.194 1.194 0 102.388 0 1.194 1.194 0 00-2.388 0zm-21.935 3.302a1.188 1.188 0 102.375 0 1.188 1.188 0 00-2.375 0zm-6.615 0a1.19 1.19 0 001.192 1.188 1.19 1.19 0 001.193-1.188 1.19 1.19 0 00-1.193-1.188 1.19 1.19 0 00-1.192 1.188zm39.314-45.88a1.192 1.192 0 00.016 2.383c.422 0 .774-.231.987-.562a33.251 33.251 0 012.87 7.942 1.155 1.155 0 00-.509-.124 1.194 1.194 0 000 2.386c.349 0 .655-.155.873-.393.29 1.766.447 3.577.447 5.423 0 1.847-.157 3.658-.447 5.424a1.179 1.179 0 00-.873-.393 1.193 1.193 0 000 2.386c.185 0 .355-.049.51-.124a33.204 33.204 0 01-2.88 7.958 1.172 1.172 0 00-.978-.55 1.19 1.19 0 10-.031 2.38 33.743 33.743 0 01-11.51 11.595c0-.012.008-.022.008-.034a1.193 1.193 0 10-2.387 0c0 .445.255.818.615 1.023a33.274 33.274 0 01-15.517 3.826c-1.857 0-3.676-.158-5.45-.45.349-.209.593-.573.593-1.008a1.193 1.193 0 10-2.386 0c0 .277.109.52.268.723-15.13-3.219-26.517-16.68-26.517-32.755 0-1.885.165-3.731.466-5.532.194.396.592.675 1.063.675a1.192 1.192 0 100-2.386c-.313 0-.593.127-.806.324a33.276 33.276 0 013.035-8.467l.002.028.037.125a1.192 1.192 0 002.283-.682 1.193 1.193 0 00-1.439-.881c-.054.013-.094.047-.145.067a33.734 33.734 0 0111.94-12.079c-.058.195-.085.4-.034.612a1.193 1.193 0 002.321-.557 1.184 1.184 0 00-.856-.858 33.285 33.285 0 018.852-3.191 1.177 1.177 0 00-.353 1.131 1.193 1.193 0 102.32-.557 1.176 1.176 0 00-.705-.802 33.664 33.664 0 015.51-.462c12.24 0 22.963 6.605 28.807 16.436zM0 35.5C0 55.075 15.925 71 35.5 71S71 55.075 71 35.5C71 15.927 55.074 0 35.5 0 15.926 0 0 15.926 0 35.5z"/></svg>