<svg xmlns="http://www.w3.org/2000/svg" width="72" height="72"><path fill="#ff3e6d" d="M5.197 11.255l1.983.116c.083-1.453.376-2.775.87-3.931 1.776-4.152 6.824-6.412 11.246-5.037 3.457 1.074 5.691 4.463 5.691 8.636l.002.166c.075 5.65-4.584 8.913-8.503 10.657l-1.21.533-.949.418C7.127 26.002 0 29.741 0 44.221v1.003h31.04v-2.007H1.998c.31-12.938 6.7-15.744 14.07-18.98l1.216-.537c4.47-1.988 9.78-5.774 9.69-12.522l-.001-.14c0-5.073-2.784-9.216-7.094-10.555-5.365-1.661-11.488 1.1-13.653 6.16-.587 1.373-.935 2.925-1.03 4.612zM38.789.805l-.097.895c-.266 2.46-.566 4.938-.895 7.366-.329 2.41-.645 4.94-.938 7.52l-.27 2.381 1.869-1.476a11.7 11.7 0 012.66-1.598c4.606-1.96 9.849-1.605 14.025.949 3.938 2.407 6.422 6.476 6.817 11.162a15.31 15.31 0 01-.044 3.012c-.411 3.563-2.162 7.067-4.684 9.373-4.997 4.568-14.18 4.886-19.65.682-1.225-.942-2.299-2.14-3.191-3.564l-1.679 1.074c1.02 1.626 2.253 3 3.667 4.088 2.905 2.233 6.74 3.332 10.574 3.331 4.311 0 8.623-1.39 11.612-4.121 2.911-2.664 4.852-6.538 5.324-10.63.129-1.115.146-2.264.05-3.414-.448-5.334-3.28-9.967-7.768-12.712-4.718-2.883-10.632-3.288-15.823-1.081a12.6 12.6 0 00-1.264.623c.218-1.819.446-3.604.68-5.326a276.7 276.7 0 00.805-6.527h19.82V.804z"/></svg>