<svg xmlns="http://www.w3.org/2000/svg" width="17" height="14"><path fill="#176cf1" d="M8.498.094l.141.073 7.097 3.535c.313.198.348.497.104.717l-.104.079-7.065 4.33a1.4 1.4 0 01-1.169.074l-.141-.073L.264 4.498C-.05 4.3-.084 4 .16 3.78l.104-.078L7.329.167A1.4 1.4 0 018.498.094zm7.797 5.869c.129-.064.129.159.129.159v4.776c0 .064.064.096.064.096a.755.755 0 01.418.7.847.847 0 01-.836.828.847.847 0 01-.836-.828.79.79 0 01.418-.7s.064-.032.064-.096v-4.33s0-.223.097-.319c.096-.095.386-.223.482-.286zm-2.197.832l.008.123v3.993C14.106 12.376 11.356 14 8 14c-3.24 0-5.886-1.484-6.064-2.934l-.01-.155V7.077c0-.525.35-.355.407-.323l.009.005 4.635 2.834c.288.159.64.255 1.023.255.307 0 .593-.062.843-.168l.18-.087 4.795-2.93s.233-.18.28.132z"/></svg>