<svg xmlns="http://www.w3.org/2000/svg" width="14" height="13"><path fill="#176cf1" d="M8.891 2.395h-3.81V1.117h3.81zM4.667 0L4.53.008c-.58.07-1.038.577-1.038 1.182v1.19h-2.32l-.138.007a1.94 1.94 0 00-.253.049l3.102 4.05h1.928l.01-.11a.573.573 0 01.577-.485h1.174l.103.01a.542.542 0 01.456.472v.113h1.956l3.102-4.05-.089-.033c-.093-.024-.198-.024-.303-.024H10.48V1.19l-.008-.137A1.188 1.188 0 009.305 0zm6.37 7.336a.598.598 0 01-.53.311h-2.32c0 .34-.25.595-.586.595H6.427a.577.577 0 01-.587-.595H3.41a.538.538 0 01-.42-.311L.028 3.342C0 3.399 0 3.484 0 3.54v8.27C0 12.462.53 13 1.174 13h11.624c.643 0 1.174-.538 1.174-1.19l.001-8.334A.353.353 0 0114 3.342z"/></svg>