<svg xmlns="http://www.w3.org/2000/svg" width="72" height="72"><path fill="#fff" fill-opacity=".01" d="M0 0h72v72H0z"/><path fill="#955ee1" d="M41.429 7.942l.613.043c.301.021 7.373.58 7.44 6.084l.021 1.419c.062 3.943.097 6.222-.905 8.226 0-.03 0-.065-.002-.096a38.031 38.031 0 00-.027-.948l-.012-.28a32.14 32.14 0 00-.068-1.089l-.021-.259c-.034-.389-.074-.78-.124-1.17l-.026-.179a20.35 20.35 0 00-.201-1.246 5.316 5.316 0 00-.165-.624c-1.134-3.656-5.36-5.076-5.548-5.137l-.556-.182-.033.033-.38.378a5.082 5.082 0 01-.58.488c-.109.08-.23.155-.35.23-.095.062-.19.124-.289.18a8.583 8.583 0 01-.592.306l-.1.047c-.252.115-.52.225-.806.331-.438.162-.9.31-1.372.44a32.78 32.78 0 01-1.375.343c-.458.105-.915.202-1.358.296-.722.152-1.484.17-2.292.19a23.057 23.057 0 00-1.976.116c-.204.024-.413.053-.622.089l-.09.016a9.289 9.289 0 00-2.695.926c-.077.04-.152.072-.23.116-.017.009-.032.021-.048.03-.365.206-.735.437-1.114.716-.01.006-.019.01-.026.017a7.15 7.15 0 00-.711.6c-.023.023-.048.052-.073.078-.092.092-.174.188-.26.283-.095.1-.192.197-.277.3l-.065.086-.045.062a7.562 7.562 0 00-.316.436c-.036.053-.074.096-.11.153-.034.053-.06.108-.094.16a9.18 9.18 0 00-.283.481c-.011.022-.026.044-.038.065-.022.04-.034.08-.054.12a9.87 9.87 0 00-.46 1.047 10.6 10.6 0 00-.275.837 12.733 12.733 0 00-.255 1.054c-.004.02-.01.04-.013.06a14.28 14.28 0 00-.14.886c-.337-.36-.62-.85-.642-1.49a36.745 36.745 0 01-.016-.759c-.038-2.539-.115-7.487-3.043-9.125 1.684-2.067 6.145-6.814 12.818-8.56 8.03-2.101 9.971 2.61 10.048 2.804zM39.4 28.187c0 .844.688 1.528 1.536 1.528a1.53 1.53 0 001.536-1.528c0-.843-.687-1.527-1.536-1.527-.848 0-1.536.684-1.536 1.527zm-11.3 0c0 .843.687 1.527 1.536 1.527s1.536-.684 1.536-1.526c0-.844-.687-1.528-1.536-1.528s-1.537.684-1.537 1.528zM43.078 15.07l.096.052c.125.07.255.152.387.235a8.255 8.255 0 01.539.372l.165.127c.13.102.258.21.383.324.054.047.104.1.156.15.125.12.25.246.365.38.042.048.08.103.121.153.269.333.51.698.687 1.108.02.048.034.09.052.138.088.224.17.455.219.703.406 2.062.461 4.427.444 5.99 0 .073 0 .15-.003.22v.054a35.124 35.124 0 01-.056 1.478l-.448 2.888.26-.265v.001l1.814-1.847c.326-.33.61-.658.872-.986 1.055.344 1.804 1.323 1.804 2.454a2.613 2.613 0 01-2.617 2.601H45.9v2.404a10.2 10.2 0 01-2.003 6.11h-5.143l-.245.582a3.29 3.29 0 01-6.076 0l-.245-.582h-5.143a10.2 10.2 0 01-2.002-6.11V31.4h-2.418a2.612 2.612 0 01-2.617-2.601c0-.986.584-1.883 1.467-2.317l.007.005a5.923 5.923 0 00.969.543l.048.02.063.026.022.008 1.335.492v-.005l.013.004-.066-1.42-.001-.03a8.949 8.949 0 01.024-.806c.056-.837.266-2.463 1.044-3.945.1-.188.209-.374.34-.578.042-.065.09-.131.139-.2.042-.059.087-.117.131-.175l.13-.17c.116-.141.243-.275.377-.41l.082-.089a5.36 5.36 0 01.523-.44c.3-.224.615-.424.953-.613.05-.027.098-.05.147-.076a7.441 7.441 0 012.232-.777l.107-.019a10.38 10.38 0 01.596-.08c.56-.056 1.114-.072 1.681-.086.858-.022 1.744-.046 2.636-.234l.096-.02a68.635 68.635 0 001.352-.296 24.3 24.3 0 002.837-.81c.027-.011.06-.018.086-.028.03-.012.056-.024.086-.035a12.96 12.96 0 001.381-.612c.152-.08.296-.163.438-.247.107-.063.215-.124.319-.191a7.78 7.78 0 00.702-.504c.211.092.48.223.774.386zM38 45.002v20h2v-20zm-8 0v20h2v-20zm-19.066 16.81l.554.254.067.03c.26.116 1.254.549 2.892 1.137.946.34.814 1.219.767 1.422-.35 1.074-1.331 4.03-1.672 4.802-.153.34-.409.912-2.158.487-1.638-.398-2.895-1.702-3.314-2.31-.25-.51-.228-3.36.137-5.573.121-.74 1.417-1.946 2.727-2.927zm51.803.25c.365 2.213.387 5.062.154 5.546-.435.634-1.69 1.938-3.326 2.336-1.752.425-2.005-.146-2.155-.486-.34-.773-1.32-3.729-1.653-4.745-.063-.261-.196-1.14.749-1.48 1.881-.677 2.914-1.147 2.956-1.167l.555-.254v-2.678c1.305.98 2.6 2.186 2.72 2.928zm-27.264-17.65a5.188 5.188 0 004.507-2.607h18.133v18.778c-.473.197-1.235.501-2.254.867-2.122.764-2.2 2.777-1.929 3.782.028.087.4 1.233.81 2.428H38.702l-.256.546a3.308 3.308 0 01-2.973 1.904 3.306 3.306 0 01-2.974-1.904l-.257-.546H16.204c.411-1.203.79-2.363.825-2.476.255-.957.178-2.97-1.944-3.734a48.267 48.267 0 01-2.252-.867V41.805h18.13a5.189 5.189 0 004.51 2.607zM16.018 13.059l-.82 1.223 1.458.236c2.722.442 2.798 5.385 2.835 7.762.004.3.008.569.016.796.028.808.275 1.47.615 2.011-1.228.82-2.016 2.203-2.016 3.711 0 2.477 2.027 4.493 4.52 4.493h.515v.512c0 2.15.58 4.262 1.649 6.11H10.93v16.904c-1.288.84-4.283 2.986-4.602 4.936-.008.054-.827 5.491.155 6.915.17.249 1.748 2.448 4.444 3.104a6.467 6.467 0 001.517.202c1.362 0 2.311-.59 2.832-1.765.07-.158.16-.388.26-.657H31.07a5.215 5.215 0 004.402 2.45c1.79 0 3.458-.944 4.4-2.45h15.535c.1.269.19.5.26.658.521 1.174 1.47 1.764 2.833 1.764a6.44 6.44 0 001.517-.202c2.695-.656 4.273-2.855 4.444-3.104.982-1.424.162-6.861.154-6.914-.32-1.95-3.313-4.096-4.6-4.937V39.913h-13.86a12.235 12.235 0 001.65-6.11v-.512h.515c2.493 0 4.52-2.016 4.52-4.493 0-1.786-1.077-3.338-2.645-4.052 1.315-2.494 1.276-5.213 1.212-9.288l-.02-1.412c-.068-5.485-5.417-7.513-8.669-7.898-.883-1.531-4.018-5.507-12.034-3.41-9.283 2.427-14.45 10-14.665 10.321z"/></svg>