<svg xmlns="http://www.w3.org/2000/svg" width="72" height="72"><path fill="#fff" fill-opacity=".01" d="M0 0h72v72H0z"/><path fill="#955ee1" d="M16.935 22.554v2h13.24v-2zm31.36-5.62v5.62h-5.62v2h5.62v5.62h2v-5.62h5.621v-2h-5.62v-5.62zm-14.185 6.62c0 5.82-4.735 10.555-10.555 10.555-5.82 0-10.555-4.735-10.555-10.555C13 17.734 17.735 13 23.555 13c5.82 0 10.555 4.734 10.555 10.554zm25.7 0c0 5.82-4.736 10.555-10.556 10.555-5.82 0-10.555-4.735-10.555-10.555C38.7 17.734 43.434 13 49.254 13c5.82 0 10.555 4.734 10.555 10.554zm-48.81 0c0 6.923 5.632 12.555 12.555 12.555S36.11 30.477 36.11 23.554C36.11 16.632 30.478 11 23.555 11S11 16.632 11 23.554zm25.7 0c0 6.923 5.631 12.555 12.554 12.555S61.81 30.477 61.81 23.554C61.81 16.632 56.177 11 49.254 11S36.7 16.632 36.7 23.554zm5.975 22.48v2h13.241v-2zm0 4.688v2h13.241v-2zM23.55 47.837l-3.97-3.97-1.412 1.412 3.969 3.97-3.97 3.97 1.413 1.413 3.97-3.97 3.97 3.97 1.414-1.412-3.972-3.97 3.972-3.971-1.413-1.413zm10.561 1.417c0 5.82-4.735 10.555-10.555 10.555C17.735 59.81 13 55.074 13 49.254c0-5.82 4.735-10.554 10.555-10.554 5.82 0 10.555 4.734 10.555 10.554zm25.7 0c0 5.82-4.736 10.555-10.556 10.555-5.82 0-10.555-4.735-10.555-10.555 0-5.82 4.735-10.554 10.555-10.554 5.82 0 10.555 4.734 10.555 10.554zm-48.81 0c0 6.923 5.632 12.555 12.555 12.555S36.11 56.177 36.11 49.254 30.478 36.7 23.555 36.7 11 42.331 11 49.254zm25.7 0c0 6.923 5.631 12.555 12.554 12.555S61.81 56.177 61.81 49.254 56.177 36.7 49.254 36.7 36.7 42.331 36.7 49.254z"/></svg>