<svg xmlns="http://www.w3.org/2000/svg" width="72" height="72"><path fill="#fff" fill-opacity=".01" d="M0 0h72v72H0z"/><path fill="#955ee1" d="M61.729 28.312h-4.283v-1.937A4.882 4.882 0 0052.57 21.5a4.881 4.881 0 00-4.877 4.875v1.937H43.41v-6.281h-3.93a2.88 2.88 0 01-2.876-2.875 2.879 2.879 0 012.876-2.875h3.929V10h18.319zM41.409 8v6.281h-1.928a4.88 4.88 0 00-4.876 4.875 4.88 4.88 0 004.876 4.875h1.928v6.281h8.284v-3.937a2.878 2.878 0 012.876-2.875 2.878 2.878 0 012.876 2.875v3.937h8.284V8zM28.313 27.698h-1.938a4.88 4.88 0 00-4.875 4.875 4.88 4.88 0 004.875 4.875h1.938v4.282h-6.282v3.926a2.879 2.879 0 01-2.875 2.875 2.879 2.879 0 01-2.875-2.875V41.73H10V23.417h18.313zM14.281 45.656a4.88 4.88 0 004.875 4.875 4.88 4.88 0 004.875-4.875V43.73h4.282v6.326h3.937a2.879 2.879 0 012.875 2.875 2.878 2.878 0 01-2.875 2.875h-3.937v6.28H10V43.73h4.281zm28.07-5.806v3.928h6.284v18.319H30.313v-4.283h1.938a4.883 4.883 0 004.878-4.877 4.883 4.883 0 00-4.878-4.877h-1.938v-4.282h6.284V39.85a2.88 2.88 0 012.877-2.876 2.88 2.88 0 012.877 2.876zM8 21.417v42.67h42.625V41.775h-6.281v-1.926a4.88 4.88 0 00-4.875-4.875 4.88 4.88 0 00-4.875 4.875v1.926h-4.281v-6.327h-3.938a2.878 2.878 0 01-2.875-2.875 2.879 2.879 0 012.875-2.875h3.938v-8.281z"/></svg>