<svg xmlns="http://www.w3.org/2000/svg" width="72" height="72"><path fill="#fff" fill-opacity=".01" d="M0 0h72v72H0z"/><path fill="#955ee1" d="M55 47.072c-5.193 5.194-11.932 7.921-18.75 8.19v3.113h8.208c4.411 0 8 3.589 8 8h-2c0-3.309-2.691-6-6-6H26c-3.308 0-6 2.691-6 6h-2c0-4.411 3.589-8 8-8h8.25v-3.108c-6.899-.214-13.734-2.94-18.988-8.195l-.707-.707 4.924-4.924C16.085 37.674 14 32.707 14 27.25 14 15.532 23.532 6 35.25 6c5.458 0 10.425 2.086 14.192 5.478l4.851-4.852.707.707c10.956 10.956 10.956 28.783 0 39.739zM29.686 36.696c.372.585.326 1.251.297 1.692l-.011.171c-.015.3-.044.598-.072.896-.04.41-.077.798-.074 1.172.013 1.269.686 2.495 1.271 3.421.226.378.45.727.687 1.067l.068.102.468-.477c.409-.42.813-.843 1.209-1.274.89-.977 1.574-1.826 2.15-2.671.044-.065.149-.22.164-.278.008-.05-.017-.208-.032-.313a4.973 4.973 0 01-.05-.398c-.105-1.46.866-2.733 2.26-2.964.095-.016.195-.027.295-.038.081-.008.191-.02.227-.033.097-.095.23-.502.201-1.823l-.004-.226c-.011-.89-.1-1.796-.272-2.766-.023-.128-.055-.304-.099-.39-.05-.062-.312-.182-.468-.254a8.122 8.122 0 01-.308-.147c-.295-.152-.595-.293-.894-.436l-1.565-.761c-1.278-.623-2.599-1.265-3.87-1.969-.634-.351-1.474-.643-2.275-.643-.36 0-.712.06-1.035.199-.067.03-.133.062-.2.097l-.001.001c-.854.462-1.584 1.459-1.859 2.539-.309 1.208-.037 2.555.725 3.605.654.902 1.553 1.616 2.347 2.195.213.153.504.363.72.704zm3.797 9.714c.583.054 1.171.09 1.767.09 6.782 0 12.743-3.534 16.173-8.849-1.668-.23-3.281-1.26-4.368-2.323-1.294-1.264-1.274-3.068-1.262-4.145l.007-.465c.025-1.535.055-3.275-.728-4.391a1.977 1.977 0 00-.345-.38c-.454-.386-1.045-.564-1.729-.771-.513-.156-1.044-.316-1.572-.583-1.416-.717-2.508-1.917-2.995-3.294a5.797 5.797 0 01.276-4.516c.654-1.304 1.762-2.254 3.122-2.676 1.257-.39 2.431-.043 3.466.265l.429.125c1.455.41 2.751.489 3.858.24.087-.02.146-.039.213-.059-3.243-3.747-7.898-6.225-13.136-6.607-.459 1.724-1.793 5.526-5.005 7.527-3.514 2.19-6.822 4.269-4.772 10.256.092-.047.184-.094.277-.135 1.446-.623 3.344-.427 5.074.53 1.225.678 2.522 1.31 3.776 1.921l1.551.754c.316.15.634.301.945.461.073.038.151.074.232.11.454.209 1.076.495 1.416 1.164.176.348.241.708.284.946a18.9 18.9 0 01.303 3.093l.004.208c.023 1.077.065 3.084-1.428 3.71-.294.125-.58.155-.789.177-.059.007-.119.012-.177.022-.426.07-.621.479-.595.845.006.079.02.159.032.239.043.278.096.624.015 1.019-.083.409-.277.719-.47 1.003-.632.925-1.371 1.844-2.328 2.893-.41.448-.828.887-1.252 1.321zm19.062-10.764A19.1 19.1 0 0054.5 27.25c0-4.057-1.268-7.819-3.419-10.925a4.6 4.6 0 01-1.054.361c-1.437.327-3.068.238-4.845-.264l-.456-.133c-.835-.248-1.623-.484-2.304-.272-.836.259-1.519.85-1.927 1.662a3.795 3.795 0 00-.179 2.952c.318.896 1.051 1.691 2.014 2.177.37.189.796.317 1.246.453.786.238 1.675.506 2.447 1.163.26.221.492.476.687.755 1.154 1.648 1.118 3.824 1.09 5.573l-.007.453c-.012 1.108.029 2.076.66 2.693 1.128 1.104 2.773 2.006 4.092 1.748zM34.589 8.033c-7.859.269-14.527 5.259-17.256 12.226.127.877.606 1.829 1.402 2.71 1.333 1.479 3.311 1.837 5.406 2.216l.468.085c-1.693-6.585 2.539-9.22 5.988-11.369 2.353-1.466 3.504-4.268 3.992-5.868zM16.425 23.246A19.289 19.289 0 0016 27.25c0 8.714 5.824 16.084 13.781 18.447-.129-.201-.266-.397-.389-.604-.712-1.126-1.547-2.673-1.566-4.445-.004-.481.039-.941.082-1.386.027-.266.053-.533.066-.8l.013-.209c.01-.159.029-.423-.001-.507a2.695 2.695 0 01-.192-.134c-.873-.637-1.972-1.508-2.794-2.641-1.107-1.525-1.498-3.497-1.044-5.274a6.406 6.406 0 011.129-2.304c-.24-.046-.48-.091-.716-.134l-.585-.106c-2.224-.402-4.746-.858-6.535-2.845a9.542 9.542 0 01-.824-1.062zm.972 23.105c10.221 9.478 26.251 9.246 36.189-.693 9.94-9.94 10.171-25.968.694-36.191l-3.416 3.417c3.487 3.788 5.636 8.824 5.636 14.366 0 11.717-9.532 21.25-21.25 21.25-5.542 0-10.579-2.15-14.365-5.637z"/></svg>