<svg xmlns="http://www.w3.org/2000/svg" width="72" height="72"><path fill="#fff" fill-opacity=".01" d="M0 0h72v72H0z"/><path fill="#955ee1" d="M24.528 26.909h-2.173l.98-5.239h.201zm27.317-2.466a2.779 2.779 0 01-2.778 2.773h-2.975V21.67h2.975a2.779 2.779 0 012.778 2.773zm0 7.584a2.779 2.779 0 01-2.778 2.773h-2.975v-5.547h2.975a2.779 2.779 0 012.778 2.774zm-12.7 0a2.776 2.776 0 01-2.773 2.773h-2.97v-5.547h2.97a2.776 2.776 0 012.773 2.774zM21.675 19.67l-3.053 16.71 1.966.367 1.393-7.838h2.926l1.411 7.841 1.965-.373-3.09-16.707zm22.417 0V36.8h4.975a4.781 4.781 0 004.778-4.773 4.765 4.765 0 00-1.879-3.792 4.765 4.765 0 001.88-3.792 4.78 4.78 0 00-4.779-4.773zm-12.69 0V36.8h4.97l.212-.005a4.78 4.78 0 004.56-4.768 4.778 4.778 0 00-4.772-4.774v-.037h-2.97V21.67h6.538v-2zm25.512 27.77h-5.575v-1.904h5.575zm3.503 0h-1.494v-3.903h-9.584v3.903H12.528V11.001h47.889zm-14.514 7.106H26.977l2.03-5.106h14.866zM10.528 9v38.44H9v2h17.856l-5.401 13.574 1.858.74 2.868-7.208H46.71l2.868 7.208 1.858-.74-5.402-13.574h17.761v-2h-1.378V9z"/></svg>