<svg xmlns="http://www.w3.org/2000/svg" width="72" height="72"><path fill="#fff" fill-opacity=".01" d="M0 0h72v72H0z"/><path fill="#955ee1" d="M63.991 23.031a.55.55 0 01.215.738l-.979 1.779-5.336-2.934.979-1.779a.55.55 0 01.736-.214zm-30.648.744c-.266.23-.71.614-.814.66-.132 0-.357-.16-.575-.312-.392-.274-.878-.616-1.543-.616-.618 0-1.105.305-1.496.552-.369.232-.61.375-.88.375-.193-.02-.687-.44-.982-.69-.642-.546-1.37-1.164-2.267-1.164-1.417 0-2.728 1.308-2.976 1.57l1.45 1.377.102-.102c.4-.383 1.053-.845 1.418-.845.192.021.686.44.98.688.643.546 1.372 1.166 2.27 1.166.866 0 1.492-.394 1.95-.682.147-.092.367-.232.41-.247.077.017.281.16.415.255.406.284.96.674 1.724.674.794 0 1.468-.582 2.12-1.144.264-.228.691-.595.91-.693.156.092.433.366.624.554.58.572 1.301 1.283 2.301 1.283.957 0 1.578-.528 2.033-.913.132-.112.41-.345.482-.345.36 0 .727.328.821.434l1.535-1.28-.022-.027c-.171-.198-1.05-1.127-2.334-1.127-.807 0-1.366.473-1.775.82-.359.304-.538.438-.74.438-.18 0-.664-.478-.897-.708-.545-.537-1.163-1.146-2.014-1.146-.844 0-1.548.607-2.23 1.195zm0 6.816c-.266.23-.711.615-.813.66-.132 0-.358-.159-.576-.311-.391-.276-.878-.619-1.543-.619-.618 0-1.104.307-1.496.554-.37.233-.61.376-.88.376-.193-.02-.686-.44-.981-.691-.643-.548-1.371-1.167-2.268-1.167-1.417 0-2.727 1.31-2.975 1.574l1.45 1.38.102-.102c.399-.384 1.052-.847 1.418-.847.192.021.685.44.979.69.644.547 1.372 1.168 2.27 1.168.867 0 1.493-.394 1.95-.683.147-.092.368-.232.41-.247.077.017.28.16.416.254.405.286.96.676 1.724.676.794 0 1.467-.583 2.12-1.146.263-.229.69-.597.909-.696.156.093.433.368.625.557.579.572 1.3 1.285 2.3 1.285.958 0 1.579-.528 2.034-.914.132-.113.408-.347.48-.347.362 0 .729.33.823.436l1.535-1.285-.023-.026c-.172-.198-1.05-1.13-2.334-1.13-.806 0-1.366.475-1.774.823-.36.303-.538.438-.74.438-.18 0-.664-.479-.898-.71-.545-.538-1.163-1.148-2.013-1.148-.844 0-1.548.608-2.23 1.198zm0 6.81c-.266.23-.712.613-.814.658-.132 0-.358-.159-.575-.31-.392-.275-.878-.617-1.543-.617-.618 0-1.105.305-1.496.552-.37.232-.61.375-.88.375-.194-.02-.687-.44-.982-.69-.642-.546-1.37-1.164-2.267-1.164-1.417 0-2.728 1.308-2.976 1.57l1.45 1.377.102-.102c.4-.383 1.053-.845 1.418-.845.192.022.685.44.98.69.643.544 1.371 1.164 2.27 1.164.866 0 1.492-.394 1.95-.682.147-.092.367-.232.41-.247.076.017.28.16.415.255.406.284.96.674 1.724.674.794 0 1.468-.582 2.12-1.144.264-.228.69-.595.91-.693.155.092.433.366.624.554.58.572 1.301 1.283 2.301 1.283.957 0 1.578-.528 2.033-.913.132-.112.408-.345.482-.345.36 0 .727.328.821.434l1.535-1.28-.022-.027c-.172-.198-1.05-1.127-2.334-1.127-.807 0-1.367.473-1.775.82-.359.304-.538.438-.74.438-.18 0-.664-.478-.897-.707-.545-.538-1.164-1.147-2.014-1.147-.844 0-1.548.607-2.23 1.195zm25.368-12.05L47.046 46.585l-1.791-.986L56.92 24.366zm-36.9 19.031l1.45 1.377.102-.102c.399-.384 1.052-.846 1.417-.846.193.021.686.44.98.69.643.545 1.373 1.163 2.269 1.163.867 0 1.493-.394 1.95-.68.147-.092.369-.232.412-.248.077.018.28.16.415.255.405.284.96.673 1.723.673v-2l-.062-.01c-.135-.035-.326-.17-.514-.3-.391-.275-.877-.616-1.542-.616-.618 0-1.104.306-1.495.552-.37.231-.61.374-.882.374-.192-.02-.685-.439-.98-.689-.643-.545-1.371-1.164-2.268-1.164-1.417 0-2.727 1.308-2.975 1.571zM62.265 27.3L50.59 48.542l-1.791-.985 11.674-21.243zM48.672 49.774l-2.9 1.211-.537-3.105zM13 11v49.911h39.249v-2H15V13h36.249v17.549l-8.398 15.279 1.106 6.388-1.187 2.158 1.752.963 1.187-2.158 5.984-2.49 14.265-25.957c.327-.593.402-1.28.212-1.934a2.53 2.53 0 00-1.215-1.519l-4.386-2.411a2.524 2.524 0 00-1.933-.211 2.518 2.518 0 00-1.519 1.215l-3.868 7.038V11z"/></svg>