<svg xmlns="http://www.w3.org/2000/svg" width="3952" height="2170"><path fill="#6f55ff" d="M1733.277 450.465c11.048 3.347 22.105 6.642 33.21 9.814 98.676 28.405 190.69 48.34 293.876 34.939 61.467-7.998 121.8-23.2 180.72-42.207 63.39-20.43 125.291-45.281 186.134-72.216 63.784-28.206 126.494-58.708 188.869-89.848 63.074-31.518 125.76-63.683 188.843-95.093 61.438-30.621 123.225-60.523 186.14-87.987 59.025-25.755 119.087-49.457 180.693-68.437 56.217-17.298 113.895-30.758 172.54-36.516 53.86-5.26 108.652-3.826 161.67 7.827 53.076 11.637 103.403 33.637 148.103 64.517 51.85 35.83 95.356 82.481 131.791 133.625 46.846 65.752 82.703 138.91 112.261 213.827 82.349 208.52 65.576 448.115-18.306 655.821-102.43 253.697-301.88 475.435-521.93 635.215-422.066 306.47-954.815 468.535-1466.847 455.528-521.356-13.26-1036.861-202.426-1442.961-529.493-272.915-219.79-510.858-555.184-433.17-896.164 77.546-340.479 452.918-544.949 802.86-546.24 25.138-.09 50.277.557 75.379 2.015 108.589 6.274 214.75 29.18 317.694 63.922 175.506 59.192 345.158 133.202 522.431 187.151z" opacity=".06"/></svg>