<svg xmlns="http://www.w3.org/2000/svg" width="72" height="72"><path fill="#fff" fill-opacity=".01" d="M0 0h72v72H0z"/><path fill="#955ee1" d="M42.09 9.25c0 1.241-1.01 2.25-2.25 2.25a2.253 2.253 0 01-2.25-2.25C37.59 8.009 38.6 7 39.84 7s2.25 1.009 2.25 2.25zm-6.5 0c0 1.241-1.01 2.25-2.25 2.25a2.253 2.253 0 01-2.25-2.25C31.09 8.009 32.1 7 33.34 7s2.25 1.009 2.25 2.25zm1-2.706C35.81 5.609 34.65 5 33.34 5a4.255 4.255 0 00-4.25 4.25 4.255 4.255 0 004.25 4.25c1.31 0 2.47-.609 3.25-1.544.78.935 1.938 1.544 3.25 1.544a4.255 4.255 0 004.25-4.25A4.255 4.255 0 0039.84 5c-1.312 0-2.47.609-3.25 1.544zm.693 10.341l.452.01c12.48.317 22.479 5.696 22.917 5.935.484.265.66.873.398 1.356a1.016 1.016 0 01-1.358.398c-.103-.055-10.47-5.61-22.803-5.705-12.408.094-22.69 5.652-22.788 5.706a1.02 1.02 0 01-1.358-.399 1 1 0 01.398-1.356c.428-.234 10.647-5.748 23.449-5.955l.31.004.216-.009zm-19.24 10.787a1 1 0 001.76.95l.234-.433a1 1 0 00-1.753-.962zm35.969-.84a1 1 0 00-.396 1.357l.232.428.066.107a1.002 1.002 0 001.288.305 1 1 0 00.412-1.353l-.244-.449-.062-.099a1 1 0 00-1.296-.297zm2.048 3.943a.995.995 0 00-.506 1.316c.131.293.26.587.383.882a1 1 0 001.844-.77c-.13-.31-.264-.618-.4-.923a1 1 0 00-1.32-.505zm-39.796.534c-.137.304-.27.61-.4.917a.993.993 0 00.534 1.306 1.006 1.006 0 001.316-.53c.127-.296.255-.592.386-.886a.993.993 0 00-.511-1.315c-.51-.222-1.1.006-1.325.508zm41.671 4.026a1 1 0 00-.635 1.264c.102.306.2.613.296.92a1.001 1.001 0 101.91-.593c-.1-.32-.202-.64-.308-.957a1 1 0 00-1.263-.634zm-43.487.661c-.106.318-.209.637-.308.957a1 1 0 00.959 1.298c.429 0 .824-.275.959-.704.096-.308.195-.615.297-.92a.999.999 0 00-.638-1.265 1.007 1.007 0 00-1.27.634zM59.35 40.06c-.541.12-.883.656-.763 1.197.07.314.136.629.197.944a1.005 1.005 0 001.972-.387 48.36 48.36 0 00-.208-.993 1.005 1.005 0 00-1.198-.761zm-46.24.786a42.17 42.17 0 00-.208.99 1 1 0 00.987 1.192c.47 0 .89-.33.984-.806.063-.315.128-.629.2-.942a1 1 0 00-.764-1.193 1.003 1.003 0 00-1.199.76zm47.145 4.058a1 1 0 00-.89 1.099c.033.319.063.638.089.958a1 1 0 101.994-.16 41.75 41.75 0 00-.095-1.006.995.995 0 00-1.098-.891zm-47.076.028a.99.99 0 00-.881.89 37.28 37.28 0 00-.095 1.007 1 1 0 101.994.16c.026-.318.055-.636.089-.955a1 1 0 00-.888-1.1l-.111-.008zm46.407 5.874c-.005.321-.013.641-.025.962a.999.999 0 101.998.077c.014-.336.022-.672.027-1.009a1 1 0 00-.985-1.015c-.516 0-1.007.433-1.015.985zm-47.519.059c.004.337.013.673.027 1.01.02.538.462.961.993.961l.04-.001a.997.997 0 00.955-1.038c-.012-.32-.02-.641-.025-.962-.007-.552-.458-1.009-1.01-.985a.998.998 0 00-.98 1.015zm47.059 4.583a6.11 6.11 0 01-.281.796 1 1 0 001.834.8c.145-.332.27-.688.374-1.061a1 1 0 10-1.927-.535zM13.3 54.78a1 1 0 00-.69 1.235c.108.373.235.73.379 1.057a1 1 0 101.83-.806 6.107 6.107 0 01-.284-.798 1.003 1.003 0 00-1.235-.688zm43.314 3.608a5.264 5.264 0 01-.786.252 1 1 0 10.46 1.946 7.317 7.317 0 001.09-.35 1 1 0 00.543-1.305 1.003 1.003 0 00-1.307-.543zm-40.854.558a1 1 0 00.548 1.304c.348.141.715.257 1.092.344a1 1 0 00.451-1.948 5.159 5.159 0 01-.787-.248.999.999 0 00-1.304.548zm15.655-.154l-.116.006a.999.999 0 00-.88.993c0 .553.445 1 .996 1h.983l.117-.006a.999.999 0 00.88-.993c0-.553-.446-1-.997-1zm14.796 0l-.117.006a1 1 0 00.117 1.993h.986l.117-.006a1 1 0 00-.117-1.993zm-9.862 0l-.116.006a1 1 0 00.116 1.993h.986l.117-.006a1 1 0 00-.117-1.993zm-14.795 0l-.116.006a.999.999 0 00-.88.993c0 .553.445 1 .996 1h.983l.116-.006a.999.999 0 00.88-.993c0-.553-.445-1-.996-1zm19.726 0l-.117.006a1 1 0 00.117 1.993h.986l.117-.006a1 1 0 00-.117-1.993zm9.861 0l-.116.006a1 1 0 00.116 1.993h.986l.117-.006a1 1 0 00-.117-1.993zm-23.674 0h-.982l-.117.006a.999.999 0 00-.88.993c0 .553.446 1 .997 1h.982l.117-.006a.999.999 0 00.88-.993c0-.553-.445-1-.997-1zm30.004-33.07l-.092.05.347.64c5.142 9.623 7.495 19.815 6.813 29.52-.098 1.385-.266 2.841-.831 4.108-.886 1.984-2.924 3.168-5.452 3.168H15.398l-.27-.004c-2.402-.081-4.327-1.25-5.181-3.164-.564-1.265-.733-2.722-.832-4.108-.697-9.92 1.778-20.35 7.16-30.16l-.03-.016.165-.076c3.11-1.439 11.228-4.731 20.479-4.8 9.334.07 17.535 3.427 20.582 4.842zM36.9 14.88l-.311-.004-.112.01-.46.01c-12.996.328-23.397 5.939-23.838 6.181a3.004 3.004 0 00-1.193 4.068 2.991 2.991 0 002.539 1.55c-4.874 9.594-7.086 19.71-6.405 29.38.11 1.568.309 3.233 1 4.781 1.198 2.685 3.986 4.353 7.277 4.353h42.858l.297-.004c3.161-.098 5.819-1.745 6.98-4.349.693-1.55.89-3.215 1-4.783.682-9.666-1.53-19.778-6.401-29.369l.038.004.193-.006a3 3 0 002.443-1.557 3.006 3.006 0 00-1.194-4.069l-.02-.01c-.677-.367-11.244-5.977-24.193-6.175l-.124-.015z"/></svg>