<svg xmlns="http://www.w3.org/2000/svg" width="10" height="10"><path fill="#176cf1" d="M10.08 7.84c-.02-.08-.2-.22-.54-.38-.1-.06-.22-.12-.38-.22S8.84 7.06 8.7 7c-.14-.08-.26-.14-.38-.22-.02-.02-.08-.06-.18-.12-.1-.06-.18-.12-.26-.16-.08-.04-.14-.04-.2-.04-.1 0-.22.06-.36.2-.14.14-.28.28-.4.44a4 4 0 01-.38.44c-.14.14-.24.2-.32.2-.04 0-.1-.02-.16-.04a.478.478 0 01-.14-.06c-.04-.02-.08-.04-.18-.1-.08-.04-.12-.08-.14-.08-.64-.36-1.2-.78-1.66-1.24-.46-.46-.88-1.02-1.24-1.66 0 0-.04-.06-.08-.14-.04-.08-.08-.14-.1-.18a.975.975 0 01-.06-.14.618.618 0 01-.04-.16c0-.08.06-.2.2-.32a4 4 0 01.44-.38c.16-.12.3-.24.44-.4.14-.14.2-.26.2-.36a.71.71 0 00-.04-.2c-.04-.06-.08-.16-.16-.26s-.08-.12-.1-.14c-.08-.12-.14-.24-.22-.38-.08-.14-.16-.28-.24-.46-.1-.16-.16-.3-.22-.38-.16-.34-.3-.52-.38-.54C2.3.1 2.26.1 2.2.1c-.12 0-.3.02-.5.08-.2.04-.36.1-.48.14-.24.1-.5.38-.76.86C.22 1.62.1 2.06.1 2.5c0 .12 0 .26.02.38s.04.26.08.4c.04.16.08.26.1.34.02.08.08.2.14.4.08.18.12.3.12.34.16.46.36.88.58 1.24.38.6.88 1.24 1.54 1.88.64.64 1.28 1.16 1.88 1.54.36.22.78.42 1.24.58.04.02.16.06.34.12.18.08.32.12.4.14.08.02.18.06.34.1.16.04.28.08.4.08.12.02.24.02.38.02.44 0 .88-.12 1.32-.36.48-.26.76-.52.86-.76.06-.12.1-.28.14-.48.04-.2.08-.38.08-.5.04-.02.04-.08.02-.12z"/></svg>