<svg xmlns="http://www.w3.org/2000/svg" width="10" height="8"><path fill="#176cf1" d="M9.74.32c.18.18.26.4.26.64 0 .3-.1.58-.28.84-.18.26-.4.5-.68.68-.9.62-1.58 1.1-2.04 1.42-.24.18-.44.32-.56.4-.02.02-.04.04-.08.06-.04.04-.1.08-.16.12-.12.1-.22.16-.3.22-.1.06-.18.1-.3.18-.12.08-.22.12-.32.16-.1.04-.2.06-.28.06-.08 0-.18-.02-.28-.06-.1-.04-.2-.1-.32-.16s-.22-.12-.3-.18c-.08-.06-.18-.14-.3-.22a.656.656 0 00-.16-.12c-.04-.02-.06-.04-.08-.06-.16-.12-.34-.24-.56-.4-.26-.18-.56-.38-.9-.62-.64-.44-1.02-.72-1.14-.8C.72 2.32.5 2.12.3 1.84S0 1.32 0 1.08C0 .8.1.56.24.36.38.16.6.08.9.08h8.2c.24 0 .46.08.64.24zM10 2.6v4.32l-2.5-2.5c.54-.36 1.18-.8 1.94-1.32.22-.16.4-.32.56-.5zM2.5 4.44L0 6.94V2.62c.16.18.34.34.56.48.8.52 1.44.96 1.94 1.34zm6.6 3.48H.88c-.22 0-.42-.08-.58-.22l2.84-2.82c.08.04.14.1.2.14.22.16.4.28.52.36.12.08.3.16.52.26.22.1.42.14.62.14s.4-.04.62-.14c.22-.08.38-.18.52-.26.14-.08.3-.2.52-.36.06-.04.14-.1.2-.14L9.68 7.7c-.16.14-.36.22-.58.22z"/></svg>