<svg xmlns="http://www.w3.org/2000/svg" width="56" height="56"><g clip-path="url(#clip-5EB9625B-F60B-438A-80B2-679F40252B29)"><path fill="#176cf1" d="M28 56c15.464 0 28-12.536 28-28S43.464 0 28 0 0 12.536 0 28s12.536 28 28 28z"/></g><g clip-path="url(#clip-5EB9625B-F60B-438A-80B2-679F40252B29)"><path fill="#fff" d="M27.5 23.348c1.878 0 3.41 1.495 3.41 3.329 0 1.832-1.532 3.328-3.41 3.328-1.878 0-3.41-1.496-3.41-3.328 0-1.834 1.532-3.329 3.41-3.329zM27.5 44C32.657 37.087 40 34.42 40 26.222 40 19.22 34.663 14 27.5 14 20.34 14 15 19.219 15 26.222 15 34.42 22.345 37.09 27.5 44z"/></g></svg>