<svg xmlns="http://www.w3.org/2000/svg" width="72" height="72"><path fill="#ff3e6d" d="M45.243 15.695H8.627V8.627h36.616zM6.627 6.627v11.068h40.616V6.627zm40.52 17.164a1.16 1.16 0 102.32 0 1.16 1.16 0 00-2.32 0zm-21.54 0a1.16 1.16 0 102.322-.001 1.16 1.16 0 00-2.321 0zm-21.538 0a1.16 1.16 0 102.32 0 1.16 1.16 0 00-2.32 0zm38.77 0a1.161 1.161 0 102.323-.001 1.161 1.161 0 00-2.323 0zm-4.307 0a1.16 1.16 0 102.32 0 1.16 1.16 0 00-2.32 0zm-4.308 0a1.161 1.161 0 102.322 0 1.161 1.161 0 00-2.322 0zm-4.309 0a1.161 1.161 0 102.323-.001 1.161 1.161 0 00-2.323 0zm-8.615 0a1.161 1.161 0 102.322 0 1.161 1.161 0 00-2.322 0zm-4.308 0a1.16 1.16 0 102.321 0 1.16 1.16 0 00-2.32 0zm-4.307 0a1.161 1.161 0 102.322 0 1.161 1.161 0 00-2.322 0zm-4.309 0a1.161 1.161 0 102.323-.001 1.161 1.161 0 00-2.323 0zm26.25 13.015h-4.724v-4.724h4.723zm-10.647 0h-4.714v-4.724h4.714zm21.274 0H40.54v-4.724h4.714zm-31.912 0H8.627v-4.724h4.714zm14.561-6.724v8.724h8.723v-8.724zm-10.637 0v8.724h8.714v-8.724zm21.274 0v8.724h8.714v-8.724zm-31.912 0v8.724h8.714v-8.724zm27.998 17.831h-4.723V43.2h4.723zm-10.646 0h-4.714V43.2h4.714zm21.274 0H40.54V43.2h4.714zm-31.912 0H8.627V43.2h4.714zM27.902 41.2v8.714h8.723V41.2zm-10.637 0v8.714h8.714V41.2zm21.274 0v8.714h8.714V41.2zm-31.912 0v8.714h8.714V41.2zm27.998 17.264h-4.723V53.75h4.723zm-10.646 0h-4.714V53.75h4.714zm21.274 0H40.54V53.75h4.714zm-31.912 0H8.627V53.75h4.714zm14.561-6.714v8.714h8.723V51.75zm-10.637 0v8.714h8.714V51.75zm21.274 0v8.714h8.714V51.75zm-31.912 0v8.714h8.714V51.75zm45.34-46.49v56.527l-.005.185a3.263 3.263 0 01-3.254 3.074H5.26l-.185-.005A3.263 3.263 0 012 61.787V5.26l.005-.185A3.264 3.264 0 015.26 2h43.448a3.264 3.264 0 013.259 3.26zM5.26 0l-.216.004A5.267 5.267 0 000 5.26v56.527l.004.216a5.266 5.266 0 005.256 5.043h43.448l.216-.004a5.265 5.265 0 005.043-5.255V5.26l-.004-.216A5.266 5.266 0 0048.708 0z"/></svg>