<svg xmlns="http://www.w3.org/2000/svg" width="72" height="72"><path fill="#ff3e6d" d="M48.06 7.416a2.779 2.779 0 010 3.92 2.766 2.766 0 01-4.723-1.96c0-.673.24-1.31.675-1.813l.136-.147.147-.137a2.74 2.74 0 011.81-.675c.738 0 1.433.288 1.955.812zm-26.554 0a2.775 2.775 0 010 3.919 2.774 2.774 0 01-4.732-1.96c0-.74.289-1.436.813-1.959a2.75 2.75 0 011.96-.813c.74 0 1.436.289 1.959.813zM16.17 5.999a4.736 4.736 0 00-1.397 3.372c0 1.272.496 2.47 1.397 3.37a4.75 4.75 0 003.37 1.394 4.75 4.75 0 003.37-1.394 4.772 4.772 0 000-6.74 4.732 4.732 0 00-3.37-1.397c-1.273 0-2.47.496-3.37 1.396zm26.747-.174L42.734 6l-.174.184a4.736 4.736 0 00-1.223 3.187c0 1.273.497 2.47 1.397 3.37a4.75 4.75 0 003.37 1.394 4.75 4.75 0 003.37-1.394 4.771 4.771 0 000-6.741 4.735 4.735 0 00-3.37-1.396c-1.188 0-2.31.432-3.186 1.221zm8.398-1.667c2.873 2.875 2.873 7.55 0 10.424a7.392 7.392 0 01-7.197 1.883l-.561-.156-4.93 4.929-4.392-4.392 4.93-4.929-.156-.563a7.386 7.386 0 011.883-7.196A7.32 7.32 0 0146.105 2c1.968 0 3.819.766 5.211 2.158zM31.472 21.762a1.189 1.189 0 102.38 0 1.19 1.19 0 10-2.38 0zm-.932 5.828h-7.048l3.525-3.524zM9.98 32.744a1.19 1.19 0 102.38 0 1.19 1.19 0 00-2.38 0zm43.25 0a1.19 1.19 0 102.38 0 1.19 1.19 0 00-2.38 0zm2.309 1.98a1.191 1.191 0 101.26 1.116 1.19 1.19 0 00-1.26-1.116zm-45.728.01a1.19 1.19 0 00.097 2.366 1.19 1.19 0 00.144-2.376l-.122-.001zm46.647 3.285a1.19 1.19 0 102.381 0 1.19 1.19 0 00-2.38 0zm-49.707 0a1.19 1.19 0 102.381-.001 1.19 1.19 0 00-2.38 0zm-3.196 1.19c0 .658.53 1.19 1.185 1.19.654 0 1.184-.532 1.184-1.19 0-.657-.53-1.19-1.184-1.19-.655 0-1.185.533-1.185 1.19zm27.917 0a1.189 1.189 0 102.38 0 1.19 1.19 0 10-2.38 0zm28.184 0a1.19 1.19 0 102.38 0 1.19 1.19 0 00-2.38 0zm-28.184 4.714a1.19 1.19 0 102.38.002 1.19 1.19 0 00-2.38-.002zM24.753 4.158a7.389 7.389 0 011.882 7.196l-.156.563L51.322 36.76a7.307 7.307 0 011.962 6.859l-.731 3.155-30.466-30.466-.563.157a7.386 7.386 0 01-7.195-1.883A7.323 7.323 0 0112.17 9.37c0-1.968.767-3.819 2.159-5.212A7.322 7.322 0 0119.541 2c1.969 0 3.819.766 5.212 2.158zm-8.11 41.937a2.317 2.317 0 01-2.315 2.315 2.317 2.317 0 01-2.314-2.315 2.317 2.317 0 012.314-2.314 2.317 2.317 0 012.314 2.314zm14.83 2.542a1.19 1.19 0 102.378.003 1.19 1.19 0 00-2.379-.003zm-21.459-2.542a4.32 4.32 0 004.314 4.315 4.32 4.32 0 004.314-4.315 4.319 4.319 0 00-4.314-4.314 4.319 4.319 0 00-4.314 4.314zm-6.459 7.07c0 .659.53 1.192 1.185 1.192.654 0 1.184-.533 1.184-1.191 0-.657-.53-1.19-1.184-1.19-.655 0-1.185.533-1.185 1.19zm56.1.002a1.19 1.19 0 102.381 0 1.19 1.19 0 00-2.38 0zm-28.183.184a1.19 1.19 0 102.38.003 1.19 1.19 0 00-2.38-.003zm9.773-7.255c0 4.732-3.85 8.583-8.584 8.583-4.732 0-8.583-3.852-8.583-8.584 0-4.732 3.851-8.583 8.583-8.583 4.733 0 8.584 3.85 8.584 8.583zm-34.494 8.26a1.19 1.19 0 102.38 0 1.19 1.19 0 00-2.38 0zm49.707 0a1.19 1.19 0 102.38.001 1.19 1.19 0 00-2.38 0zM31.472 34.495c0 .46.267.847.65 1.045-5.585.285-10.044 4.905-10.044 10.561 0 5.837 4.747 10.588 10.583 10.588s10.584-4.75 10.584-10.588c0-5.655-4.459-10.276-10.043-10.56.381-.199.65-.586.65-1.046a1.19 1.19 0 10-2.38 0zM9.908 55.275a1.191 1.191 0 101.26 1.116 1.19 1.19 0 00-1.26-1.115zm45.534.01a1.19 1.19 0 10.24-.01h-.121zm-23.97 2.78a1.189 1.189 0 102.38 0 1.19 1.19 0 10-2.38 0zM9.98 59.632a1.19 1.19 0 102.38 0 1.19 1.19 0 00-2.38 0zm43.25 0a1.19 1.19 0 102.381 0 1.19 1.19 0 00-2.381 0zM31.472 29.78c0 .657.532 1.189 1.189 1.189.348 0 .652-.153.87-.39l20.157 20.157 1.545-6.666a9.299 9.299 0 00-2.497-8.726l-5.755-5.755h16.728v32.922H33.798c-.125-.524-.574-.922-1.137-.922-.562 0-1.012.398-1.136.922H2V29.59h29.51c-.011.065-.038.123-.038.191zm8.007-27.037a9.388 9.388 0 00-2.538 8.569l-4.119 4.119-4.119-4.119a9.392 9.392 0 00-2.536-8.569A9.31 9.31 0 0019.541 0a9.308 9.308 0 00-6.626 2.744A9.31 9.31 0 0010.17 9.37a9.31 9.31 0 002.745 6.626 9.39 9.39 0 008.568 2.537l4.12 4.119-4.939 4.938H0v36.922h65.709V27.59H44.981l-4.939-4.938 4.119-4.119a9.385 9.385 0 008.569-2.537c3.654-3.653 3.654-9.598 0-13.252A9.308 9.308 0 0046.105 0a9.307 9.307 0 00-6.626 2.744z"/></svg>