<svg xmlns="http://www.w3.org/2000/svg" width="12" height="12"><path fill="#2f3640" d="M11.984 9.325c-.024-.096-.24-.265-.648-.458-.12-.072-.264-.144-.457-.265a4.102 4.102 0 00-.552-.289c-.168-.096-.312-.168-.456-.265a1.532 1.532 0 00-.216-.144c-.12-.073-.217-.145-.313-.193-.096-.048-.168-.048-.24-.048-.12 0-.264.072-.432.24a5.027 5.027 0 00-.48.53 4.814 4.814 0 01-.457.53c-.168.17-.288.242-.384.242-.048 0-.12-.024-.192-.048a.57.57 0 01-.168-.073 2.714 2.714 0 01-.216-.12c-.096-.048-.144-.097-.168-.097A9.185 9.185 0 014.61 7.373a9.21 9.21 0 01-1.489-2s-.048-.072-.096-.168c-.048-.097-.096-.169-.12-.217-.024-.048-.048-.096-.072-.169-.024-.072-.048-.144-.048-.192 0-.097.072-.241.24-.386.168-.169.336-.313.528-.458a3.3 3.3 0 00.529-.482c.168-.168.24-.313.24-.434a.858.858 0 00-.048-.24c-.048-.073-.096-.193-.192-.314-.096-.12-.096-.144-.12-.168-.096-.145-.168-.29-.264-.458a5.84 5.84 0 01-.289-.554C3.29.94 3.218.77 3.146.675c-.192-.41-.36-.627-.456-.65C2.642 0 2.594 0 2.522 0c-.144 0-.36.024-.6.096-.24.049-.433.12-.577.17-.288.12-.6.457-.913 1.035C.144 1.831 0 2.361 0 2.891c0 .145 0 .314.024.458.024.145.048.314.096.482.048.193.096.314.12.41.024.096.096.24.168.482.096.217.144.361.144.41.193.554.433 1.06.697 1.494a12.386 12.386 0 001.85 2.265c.768.77 1.536 1.397 2.257 1.855.432.265.936.506 1.489.699.048.024.192.072.408.144.216.097.384.145.48.169.096.024.216.072.409.12.192.049.336.097.48.097.144.024.288.024.456.024.529 0 1.057-.145 1.585-.434.577-.313.913-.626 1.033-.915.072-.145.12-.338.168-.579.048-.24.096-.458.096-.602.048-.024.048-.097.024-.145z"/></svg>